<?xml version="1.0" encoding="utf-8"?>
<!-- Generator: Adobe Illustrator 21.0.2, SVG Export Plug-In . SVG Version: 6.00 Build 0)  -->
<svg version="1.1" xmlns="http://www.w3.org/2000/svg" xmlns:xlink="http://www.w3.org/1999/xlink" x="0px" y="0px"
	 viewBox="0 0 200 200" style="enable-background:new 0 0 200 200;" xml:space="preserve">
<style type="text/css">
	.st0{clip-path:url(#XMLID_10_);fill:#FCF5F6;stroke:#FFFFFF;stroke-miterlimit:10;}
	.st1{clip-path:url(#SVGID_2_);}
	.st2{fill:#FFFFFF;}
	.st3{clip-path:url(#XMLID_11_);fill:#FFFFFF;stroke:#FFFFFF;stroke-miterlimit:10;}
	.st4{clip-path:url(#XMLID_13_);fill:#FFFFFF;stroke:#000000;stroke-miterlimit:10;}
	.st5{clip-path:url(#SVGID_4_);}
	.st6{clip-path:url(#XMLID_14_);fill:#FFFFFF;}
	.st7{clip-path:url(#XMLID_15_);}
	.st8{clip-path:url(#XMLID_15_);fill:none;stroke:#000000;stroke-miterlimit:10;}
	.st9{clip-path:url(#XMLID_15_);fill:#FFFFFF;}
	.st10{fill:#FFFFFF;stroke:#000000;stroke-miterlimit:10;}
	.st11{clip-path:url(#XMLID_17_);fill:#FFFFFF;stroke:#000000;stroke-miterlimit:10;}
	.st12{clip-path:url(#XMLID_17_);}
	.st13{fill:url(#SVGID_5_);}
	.st14{fill:url(#SVGID_6_);}
	.st15{fill:url(#SVGID_7_);}
	.st16{fill:url(#SVGID_8_);}
	.st17{fill:url(#SVGID_9_);}
	.st18{fill:url(#SVGID_10_);}
	.st19{fill:url(#SVGID_11_);}
	.st20{fill:url(#SVGID_12_);}
	.st21{font-family:'TitilliumWeb-Black';}
	.st22{font-size:22.2191px;}
	.st23{font-family:'TitilliumWeb-Thin';}
</style>
<g id="Calque_13">
	<g>
		<defs>
			<circle id="XMLID_8_" cx="76.7" cy="84.5" r="55.5"/>
		</defs>
		<use xlink:href="#XMLID_8_"  style="overflow:visible;"/>
		<clipPath id="XMLID_10_">
			<use xlink:href="#XMLID_8_"  style="overflow:visible;"/>
		</clipPath>
		<path class="st0" d="M99.6,111.9l1.5,13.3c0,0,3,4.4,5.9-1.5c0,0-1.5-1.5,0-3c0,0-3-1.5,0-4.4c0,0-3.5-3.9-2.5-4.2
			s0.8-3.7,0.8-3.7L99.6,111.9z"/>
	</g>
	<g>
		<defs>
			<path id="SVGID_1_" d="M59.8,50.4c0,0-9.3-6.2-17-1.5s-6.2,10.8-6.2,10.8s-7.7-3.1-12.4,15.5c0,0-7.7,4.6-6.2,12.4
				s1.5,6.2,1.5,6.2s-4.6,7.7-1.5,13.9c3.1,6.2,9.3,9.3,9.3,9.3s4.6,6.2,17,1.5c0,0,10.8,7.7,20.1-1.5c0,0,17,6.2,26.3-6.2
				c0,0,7.7,7.7,17,1.5c0,0,15.5,13.9,26.3-10.8c0,0,4.6-7.7-4.6-15.5c0,0,0-13.9-7.7-17c0,0-1.5-27.8-17-23.2s-17,18.6-17,18.6
				S83,44.2,59.8,50.4z"/>
		</defs>
		<use xlink:href="#SVGID_1_"  style="overflow:visible;fill:#FFFFFF;"/>
		<clipPath id="SVGID_2_">
			<use xlink:href="#SVGID_1_"  style="overflow:visible;"/>
		</clipPath>
		<g class="st1">
			<path class="st2" d="M56.7,65.8c1.8-0.5,3.8-0.9,5.7-0.4c0.9,0.3,1.8,1,2.1,1.9c0.4,0.9,0.3,2,0.2,2.9c-0.2,1-0.4,1.9-0.8,2.8
				c-0.4,0.9-0.9,1.8-1.7,2.4c-1.5,1.4-3.6,1.9-5.6,1.5l0,0c-1.2-0.2-2.3-0.5-3.4-1.1c-1.1-0.5-2.1-1.2-2.9-2.2
				c-0.8-1-1.3-2.2-1.3-3.4c0-1.2,0.2-2.5,0.7-3.6c0.4-1.1,1-2.2,1.6-3.2c0.3-0.5,0.6-1,1-1.5c0.3-0.5,0.7-1,1.1-1.4
				c0.8-0.9,1.7-1.7,2.8-2.3c1.1-0.6,2.4-1,3.7-0.6l-0.3,0.8c-1-0.6-1.8-1.4-2.1-2.6c-0.3-1.1,0.1-2.3,0.7-3.2
				c0.6-0.9,1.3-1.6,2.1-2.3c0.8-0.7,1.7-1.2,2.5-1.7l0.1,0.1c-0.8,0.6-1.6,1.2-2.3,1.9c-0.7,0.7-1.4,1.5-1.9,2.3
				c-0.5,0.8-0.7,1.8-0.5,2.6c0.3,0.8,1,1.6,1.7,2l3,1.6l-3.4-0.8c-0.4-0.1-1-0.1-1.5,0c-0.5,0.1-1,0.3-1.5,0.6
				c-1,0.5-1.8,1.3-2.5,2.1c-1.5,1.7-2.7,3.7-3.6,5.8c-0.5,1-0.7,2.1-0.7,3.2c0.1,1.1,0.4,2.1,1.1,3c0.7,0.9,1.6,1.5,2.6,2
				c1,0.5,2.1,0.9,3.2,1.1l0,0l0,0c1.7,0.4,3.7-0.1,5.1-1.3c0.7-0.6,1.2-1.4,1.6-2.2c0.4-0.9,0.6-1.8,0.8-2.7
				c0.2-0.9,0.2-1.9-0.1-2.7c-0.3-0.9-1-1.5-1.9-1.8C60.5,65.1,58.5,65.4,56.7,65.8L56.7,65.8z"/>
		</g>
		<g class="st1">
			<path class="st2" d="M36.6,79.8c-1.1-0.9-2-2-2.4-3.3c-0.4-1.3-0.4-2.8,0.4-4c0.7-1.2,2.1-2,3.4-2.3c0.3-0.1,0.7-0.1,1-0.2l1-0.1
				c0.4,0,0.7,0,1.1,0.1c0.3,0.1,0.7,0.1,1,0.3c1.4,0.5,2.5,1.5,3.3,2.6c0.8,1.2,1.3,2.5,1.7,3.8c0.4,1.3,0.6,2.7,0.6,4.1
				c0,1.4-0.3,2.9-0.9,4.1c-0.6,1.3-1.5,2.4-2.7,3.3c-1.2,0.9-2.6,1.4-4,1.5c-1.5,0.1-2.9-0.3-4.2-0.8c-1.3-0.6-2.5-1.4-3.5-2.3
				c-2.1-1.9-3.8-4.1-5.2-6.4c-0.7-1.2-1.4-2.4-2.1-3.6l-1.9-3.7l0.1,0c1.4,2.3,2.9,4.7,4.4,6.9c1.6,2.2,3.3,4.3,5.3,6.1
				c2,1.7,4.5,3,7,2.9c1.3-0.1,2.5-0.5,3.6-1.3c1-0.8,1.9-1.8,2.5-2.9c0.6-1.2,0.9-2.5,0.9-3.8c0-1.3-0.2-2.7-0.5-4
				c-0.3-1.3-0.8-2.6-1.5-3.7c-0.7-1.1-1.7-2-2.9-2.5c-1.2-0.5-2.6-0.4-3.9-0.1c-1.3,0.3-2.5,1-3.2,2.1c-0.8,1.1-0.8,2.6-0.4,3.8
				C34.8,77.7,35.6,78.8,36.6,79.8L36.6,79.8z"/>
		</g>
		<g class="st1">
			<path class="st2" d="M26.7,106.4c1.2,0.4,2.5,0.8,3.8,0.9c0.6,0.1,1.3,0.1,1.9,0c0.3,0,0.6-0.1,0.9-0.2c0.3-0.1,0.6-0.2,0.8-0.4
				c1-0.7,1.3-2,1.1-3.2c-0.2-1.2-0.6-2.4-1.2-3.6c-1.1-2.3-2.8-4.3-4.6-6.1c-1.8-1.7-4.1-3.1-6.8-3l0-0.1c1.3-0.3,2.7-0.1,4,0.3
				c1.3,0.5,2.4,1.2,3.5,2.1c2.1,1.8,3.6,4,4.7,6.5c0.5,1.2,1,2.5,1.1,3.9l0,0.5l0,0.5c0,0.3-0.1,0.7-0.2,1
				c-0.2,0.7-0.7,1.3-1.3,1.7c-0.3,0.2-0.6,0.3-0.9,0.4c-0.3,0.1-0.7,0.2-1,0.2c-0.7,0.1-1.3,0-2-0.1
				C29.1,107.4,27.9,107,26.7,106.4L26.7,106.4z"/>
		</g>
		<g class="st1">
			<path class="st2" d="M47.5,106c0.8,1.1,1.8,2.1,3,2.8c1.1,0.7,2.5,1.3,3.8,1c1.3-0.3,2.4-1.2,3.1-2.3c0.8-1.1,1.3-2.4,1.8-3.6
				c0.5-1.3,0.8-2.6,0.6-3.9c-0.2-1.3-0.9-2.5-1.9-3.3c-2-1.7-4.9-2.3-7.5-2.2c-1.3,0.1-2.7,0.4-3.9,0.9c-1.2,0.5-2.4,1.2-3.3,2.2
				c-1.9,1.9-2.7,4.5-2.7,7.2c0,2.7,0.7,5.3,1.7,7.9l0.8,1.9l0.9,1.8c0.6,1.3,1.3,2.4,2,3.6l-0.1,0.1c-1.6-2.3-3.1-4.6-4.2-7.2
				c-1.1-2.5-2-5.3-2.1-8.1c-0.1-1.4,0.2-2.9,0.6-4.3c0.5-1.4,1.3-2.6,2.3-3.6c1-1,2.3-1.8,3.6-2.3c1.3-0.5,2.8-0.8,4.2-0.8
				c2.8-0.1,5.8,0.6,8,2.5c1.1,0.9,1.9,2.3,2,3.7c0.2,1.4-0.2,2.9-0.7,4.2c-0.5,1.3-1.1,2.6-2,3.7c-0.8,1.1-2,2.1-3.4,2.4
				c-1.4,0.2-2.9-0.3-4-1.1C49.2,108.2,48.2,107.2,47.5,106L47.5,106z"/>
		</g>
		<g class="st1">
			<path class="st2" d="M64.5,113.8c0.1,0.8,0.1,1.7,0,2.6c-0.1,0.4-0.1,0.9-0.4,1.3c-0.3,0.4-0.6,0.7-1.1,0.8l-0.1-0.1
				c0.1-0.5,0.2-0.8,0.3-1.2c0.1-0.4,0.4-0.7,0.5-1C64,115.4,64.2,114.6,64.5,113.8L64.5,113.8z"/>
		</g>
		<g class="st1">
			<path class="st2" d="M106.2,106.1c-0.2,0.7,0,1.5,0.3,2.2c0.3,0.7,0.7,1.3,1.2,1.9c0.5,0.6,1.1,1.1,1.6,1.6
				c0.5,0.6,1.1,1.1,1.5,1.9l-0.1,0.1c-0.8-0.3-1.5-0.7-2.1-1.2c-0.6-0.5-1.1-1.2-1.6-1.9c-0.5-0.7-0.8-1.4-1.1-2.2
				C105.8,107.6,105.8,106.8,106.2,106.1L106.2,106.1z"/>
		</g>
		<g class="st1">
			<path class="st2" d="M90.8,106c0.6,0.6,0.9,1.5,0.9,2.3c0,0.4,0,0.9-0.2,1.3c-0.2,0.4-0.4,0.8-0.8,1l-0.1,0c0-0.2,0-0.4,0-0.6
				c0-0.2,0.1-0.4,0.1-0.6c0.1-0.4,0.2-0.7,0.3-1.1c0.1-0.4,0.1-0.8,0-1.1C91.1,106.8,90.9,106.4,90.8,106L90.8,106z"/>
		</g>
		<g class="st1">
			<path class="st2" d="M130.9,87.5c0,0-3.1-3.1-4.6-1.5"/>
			<path class="st2" d="M130.9,87.5c-0.7-0.5-1.5-1-2.3-1.3c-0.4-0.2-0.8-0.1-1.1-0.2c-0.3-0.1-0.6-0.1-1.2,0l-0.1-0.1
				c0.1-0.5,0.7-0.9,1.3-0.9c0.6,0,1,0.3,1.4,0.5C129.8,86.1,130.4,86.7,130.9,87.5L130.9,87.5z"/>
		</g>
		<g class="st1">
			<path class="st2" d="M115.4,64.3c-1.1-1-2.5-1.9-4-2.2c-0.7-0.1-1.5-0.1-2.1,0.3c-0.6,0.3-1.1,0.9-1.5,1.6
				c-0.7,1.3-1,2.8-1.3,4.3c-0.2,1.5-0.3,3.1,0.3,4.3c0.3,0.6,0.8,1.1,1.4,1.3c0.6,0.2,1.3,0.3,2.1,0.2c1.4-0.2,2.9-0.7,4.2-1.3
				c1.4-0.6,2.7-1.4,3.9-2.3c0.6-0.4,1.2-0.9,1.8-1.4c0.5-0.5,1.1-1.1,1.3-1.8h0.1c0,0.8-0.6,1.5-1,2.1c-0.5,0.6-1.1,1.1-1.7,1.7
				c-1.2,1-2.5,1.9-3.9,2.6c-1.4,0.7-2.9,1.3-4.6,1.4c-0.8,0.1-1.7,0-2.5-0.4c-0.8-0.3-1.5-1-1.8-1.8c-0.3-0.8-0.4-1.6-0.4-2.4
				c0-0.4,0-0.8,0.1-1.2c0-0.4,0.1-0.8,0.2-1.2c0.3-1.5,0.6-3.1,1.5-4.5c0.4-0.7,1-1.3,1.7-1.7c0.7-0.4,1.6-0.4,2.4-0.2
				C113.1,62.2,114.4,63.2,115.4,64.3L115.4,64.3z"/>
		</g>
		<g class="st1">
			<path class="st2" d="M87.7,70.5c0.4,1,0.7,2,0.8,3.1c0.1,0.5,0.1,1.1,0,1.7c-0.1,0.5-0.4,1.1-0.9,1.4l0,0c0.3-0.5,0.4-1,0.4-1.5
				c0-0.5,0.1-1,0.1-1.5C88,72.6,87.9,71.5,87.7,70.5L87.7,70.5z"/>
		</g>
		<use xlink:href="#SVGID_1_"  style="overflow:visible;fill:none;stroke:#FFFFFF;stroke-miterlimit:10;"/>
	</g>
	<g>
		<defs>
			<path id="XMLID_7_" d="M88.5,45c0,0-3-1.5-7.4,3c0,0-5.9-3-7.4,0c0,0-10.4-3-14.8,4.4c0,0,23.7-8.9,28.1,13.3
				c0,0,0-11.9,10.4-14.8C97.4,50.9,97.4,45,88.5,45z"/>
		</defs>
		<use xlink:href="#XMLID_7_"  style="overflow:visible;fill:#FFFFFF;"/>
		<clipPath id="XMLID_11_">
			<use xlink:href="#XMLID_7_"  style="overflow:visible;"/>
		</clipPath>
		<path class="st3" d="M78.2,52.6C78.2,52.6,78.2,53.9,78.2,52.6c0-1.3,1.5-3.2,1.5-3.2l1.5-1.5"/>
		<use xlink:href="#XMLID_7_"  style="overflow:visible;fill:none;stroke:#FFFFFF;stroke-miterlimit:10;"/>
	</g>
</g>
<g id="Calque_3">
	<g>
		<defs>
			<path id="XMLID_16_" d="M88.5,45.9c0,0-3-1.5-7.4,3c0,0-5.9-3-7.4,0c0,0-10.4-3-14.8,4.4c0,0,23.7-8.9,28.1,13.3
				c0,0,0-11.9,10.4-14.8C97.4,51.9,97.4,45.9,88.5,45.9z"/>
		</defs>
		<use xlink:href="#XMLID_16_"  style="overflow:visible;fill:#FFFFFF;"/>
		<clipPath id="XMLID_13_">
			<use xlink:href="#XMLID_16_"  style="overflow:visible;"/>
		</clipPath>
		<path class="st4" d="M78.2,53.5C78.2,53.5,78.2,54.8,78.2,53.5c0-1.3,1.5-3.2,1.5-3.2l1.5-1.5"/>
		<use xlink:href="#XMLID_16_"  style="overflow:visible;fill:none;stroke:#000000;stroke-miterlimit:10;"/>
	</g>
</g>
<g id="Calque_2">
	<g>
		<defs>
			<path id="SVGID_3_" d="M60.4,51.9c0,0-8.9-5.9-16.3-1.5s-5.9,10.4-5.9,10.4s-7.4-3-11.9,14.8c0,0-7.4,4.4-5.9,11.9
				c1.5,7.4,1.5,5.9,1.5,5.9s-4.4,7.4-1.5,13.3c3,5.9,8.9,8.9,8.9,8.9s4.4,5.9,16.3,1.5c0,0,10.4,7.4,19.3-1.5
				c0,0,16.3,5.9,25.2-5.9c0,0,7.4,7.4,16.3,1.5c0,0,14.8,13.3,25.2-10.4c0,0,4.4-7.4-4.4-14.8c0,0,0-13.3-7.4-16.3
				c0,0-1.5-26.7-16.3-22.2S87.1,65.2,87.1,65.2S82.6,45.9,60.4,51.9z"/>
		</defs>
		<use xlink:href="#SVGID_3_"  style="overflow:visible;fill:#FFFFFF;"/>
		<clipPath id="SVGID_4_">
			<use xlink:href="#SVGID_3_"  style="overflow:visible;"/>
		</clipPath>
		<g class="st5">
			<path d="M57.4,66.6c1.7-0.5,3.6-0.9,5.4-0.4c0.9,0.3,1.7,0.9,2,1.8l0.2,0.7l0,0.7c0.1,0.5-0.1,0.9-0.1,1.4
				c-0.1,0.9-0.4,1.8-0.7,2.7c-0.4,0.8-0.9,1.7-1.6,2.3c-1.4,1.3-3.5,1.8-5.4,1.5l0,0c-1.2-0.2-2.2-0.5-3.3-1
				c-1-0.5-2.1-1.1-2.8-2.1c-0.8-0.9-1.2-2.1-1.3-3.3c0-1.2,0.2-2.4,0.7-3.4c0.4-1.1,0.9-2.1,1.5-3.1c0.3-0.5,0.6-1,0.9-1.4
				c0.3-0.5,0.7-0.9,1.1-1.4c0.8-0.9,1.7-1.6,2.7-2.2c1.1-0.5,2.3-0.9,3.6-0.6l-0.3,0.8c-0.9-0.5-1.7-1.4-2-2.5
				c-0.3-1.1,0.1-2.2,0.7-3c0.6-0.8,1.3-1.6,2.1-2.2c0.8-0.6,1.6-1.1,2.4-1.7l0.1,0.1c-0.8,0.6-1.5,1.2-2.2,1.9
				c-0.7,0.7-1.3,1.4-1.8,2.2c-0.5,0.8-0.7,1.7-0.4,2.5c0.2,0.8,0.9,1.5,1.7,1.9l3,1.6l-3.4-0.8c-0.4-0.1-1-0.1-1.4,0
				c-0.5,0.1-1,0.3-1.4,0.6c-0.9,0.5-1.7,1.2-2.4,2c-1.4,1.6-2.6,3.5-3.5,5.5c-0.5,1-0.6,2-0.7,3.1c0.1,1,0.4,2,1,2.9
				c0.6,0.8,1.5,1.5,2.5,1.9c1,0.5,2,0.8,3.1,1l0,0l0,0c1.7,0.4,3.6-0.1,4.9-1.2c0.7-0.6,1.1-1.3,1.5-2.1c0.4-0.8,0.6-1.7,0.8-2.6
				c0-0.4,0.2-0.9,0.1-1.3l0-0.7l-0.2-0.6c-0.3-0.8-1-1.5-1.8-1.7C61.1,65.9,59.2,66.3,57.4,66.6L57.4,66.6z"/>
		</g>
		<g class="st5">
			<path d="M38.1,80.1c-0.9-0.8-1.8-1.7-2.4-2.8c-0.3-0.6-0.5-1.2-0.6-1.8c0-0.3,0-0.6,0.1-1c0.1-0.3,0.2-0.6,0.4-0.9
				c0.2-0.2,0.4-0.5,0.6-0.7c0.2-0.2,0.5-0.4,0.7-0.6c0.5-0.3,1.1-0.7,1.7-0.9c1.1-0.5,2.4-0.9,3.7-0.8c1.3,0.1,2.5,0.8,3.4,1.7
				c0.9,1,1.4,2.1,1.9,3.3c0.8,2.4,1.2,4.9,1.3,7.4l0,0.1l0,0.1c-0.6,1.4-1.3,2.6-2.3,3.8c-1,1.1-2.2,2.1-3.7,2.5
				c-1.5,0.4-3.1,0.3-4.5-0.3c-1.4-0.5-2.6-1.4-3.7-2.4c-2.2-1.9-4-4.2-5.6-6.6c-1.6-2.4-3-4.9-4.2-7.5l0.1,0
				c1.5,2.4,3.1,4.8,4.7,7.1c1.7,2.3,3.5,4.5,5.6,6.3c1.1,0.9,2.2,1.7,3.5,2.2c1.2,0.5,2.6,0.6,3.9,0.3c2.6-0.7,4.5-3.1,5.6-5.6
				l0,0.1c0-2.4-0.3-4.9-1.1-7.2c-0.4-1.1-0.9-2.3-1.7-3.1c-0.8-0.9-1.8-1.5-3-1.6c-1.2-0.1-2.4,0.2-3.5,0.7
				c-0.6,0.2-1.1,0.5-1.6,0.8c-0.2,0.2-0.5,0.4-0.7,0.6c-0.2,0.2-0.4,0.5-0.6,0.7c-0.7,1-0.5,2.3,0,3.4
				C36.4,78.2,37.3,79.2,38.1,80.1L38.1,80.1z"/>
		</g>
		<g class="st5">
			<path d="M26.4,96.3c-0.7,0.7-1.2,1.6-1.6,2.5c-0.4,0.9-0.5,1.9-0.2,2.8c0.3,0.9,0.9,1.7,1.7,2.3l0.6,0.4c0.2,0.1,0.4,0.2,0.6,0.3
				c0.4,0.2,0.9,0.5,1.3,0.6c0.5,0.2,0.9,0.3,1.4,0.5l1.4,0.4c1,0.3,1.9,0.4,2.9,0.3c0.9-0.1,1.8-0.5,2.1-1.3
				c0.4-0.8,0.3-1.8,0.2-2.7c-0.4-1.9-1.3-3.7-2.4-5.3c-1.1-1.6-2.4-3.1-3.9-4.3c-0.8-0.6-1.5-1.2-2.4-1.5c-0.4-0.2-0.9-0.3-1.3-0.5
				c-0.5-0.1-0.9-0.2-1.4-0.2c-0.9,0-1.9,0.2-2.7,0.7c-0.4,0.2-0.8,0.5-1.2,0.8c-0.4,0.3-0.7,0.7-1.1,1l-0.1-0.1
				c0.6-0.8,1.2-1.6,2.1-2.2c0.8-0.6,1.9-1,2.9-1c1.1-0.1,2.1,0.2,3.1,0.5c1,0.4,1.9,0.9,2.7,1.5c1.6,1.3,3,2.8,4.1,4.5
				c1.1,1.7,2,3.6,2.3,5.7c0.1,1,0.2,2.1-0.3,3.2c-0.1,0.3-0.3,0.5-0.5,0.7c-0.2,0.2-0.4,0.4-0.7,0.5l-0.8,0.3l-0.8,0.1
				c-1.1,0-2.1-0.1-3.1-0.4l-1.5-0.4c-0.5-0.2-0.9-0.4-1.4-0.5c-0.5-0.2-0.9-0.4-1.4-0.7c-0.2-0.1-0.4-0.2-0.7-0.4l-0.6-0.5
				c-0.4-0.3-0.7-0.7-1.1-1.1c-0.2-0.2-0.2-0.5-0.4-0.7l-0.2-0.3l-0.1-0.4c-0.3-1-0.1-2.1,0.3-3C25,97.8,25.6,97,26.4,96.3
				L26.4,96.3z"/>
		</g>
		<g class="st5">
			<path d="M48.6,105.2c0.8,1,1.8,2,2.8,2.7c1.1,0.7,2.4,1.2,3.6,1c1.3-0.3,2.3-1.2,3-2.2c0.7-1.1,1.3-2.3,1.7-3.5
				c0.5-1.2,0.8-2.5,0.6-3.7c-0.2-1.2-0.9-2.4-1.8-3.2c-1.9-1.6-4.7-2.2-7.2-2.1c-1.3,0.1-2.5,0.3-3.7,0.8c-1.2,0.5-2.3,1.1-3.1,2.1
				c-1.8,1.8-2.6,4.3-2.5,6.9c0,2.6,0.7,5.1,1.6,7.5l0.7,1.8l0.9,1.8c0.5,1.2,1.3,2.3,1.9,3.5l-0.1,0.1c-1.5-2.2-3-4.4-4-6.9
				c-1.1-2.4-1.9-5.1-2-7.8c-0.1-1.4,0.2-2.8,0.6-4.1c0.5-1.3,1.3-2.5,2.2-3.5c1-1,2.2-1.7,3.5-2.2c1.3-0.5,2.6-0.8,4-0.8
				c2.7-0.1,5.5,0.5,7.7,2.4c1,0.9,1.8,2.2,2,3.6c0.2,1.4-0.2,2.8-0.7,4c-0.5,1.2-1.1,2.5-1.9,3.6c-0.8,1.1-1.9,2.1-3.3,2.3
				c-1.4,0.2-2.7-0.3-3.8-1.1C50.2,107.3,49.3,106.3,48.6,105.2L48.6,105.2z"/>
		</g>
		<g class="st5">
			<path d="M64.9,112.6c0.1,0.8,0.1,1.6,0,2.5c-0.1,0.4-0.1,0.9-0.4,1.2c-0.3,0.4-0.6,0.7-1.1,0.8l-0.1-0.1c0.1-0.5,0.2-0.8,0.3-1.2
				c0.1-0.4,0.3-0.6,0.5-1C64.4,114.1,64.6,113.4,64.9,112.6L64.9,112.6z"/>
		</g>
		<g class="st5">
			<path d="M104.9,105.2c-0.2,0.7,0,1.5,0.3,2.1c0.3,0.7,0.7,1.3,1.2,1.8c0.5,0.6,1.1,1,1.6,1.6c0.5,0.6,1,1.1,1.4,1.8l-0.1,0.1
				c-0.8-0.3-1.4-0.7-2.1-1.1c-0.6-0.5-1.1-1.2-1.5-1.8c-0.4-0.7-0.8-1.4-1-2.2C104.5,106.7,104.4,105.9,104.9,105.2L104.9,105.2z"
				/>
		</g>
		<g class="st5">
			<path d="M90,105.2c0.6,0.5,0.9,1.4,0.9,2.2c0,0.4,0,0.9-0.2,1.2c-0.2,0.4-0.4,0.7-0.8,1l-0.1,0c0-0.2,0-0.4,0-0.6
				c0-0.2,0-0.4,0.1-0.6c0-0.4,0.2-0.7,0.3-1.1C90.5,106.7,90.4,105.9,90,105.2L90,105.2z"/>
		</g>
		<g class="st5">
			<path class="st2" d="M128.5,87.4c0,0-3-3-4.4-1.5"/>
			<path d="M128.5,87.5c-0.7-0.5-1.5-0.9-2.2-1.2c-0.4-0.1-0.8-0.1-1.1-0.2c-0.3-0.1-0.6-0.1-1.1-0.1l-0.1-0.1
				c0.1-0.5,0.7-0.9,1.2-0.9c0.5,0,1,0.3,1.4,0.5C127.4,86.1,128,86.7,128.5,87.5L128.5,87.5z"/>
		</g>
		<g class="st5">
			<path d="M113.7,65.2c-1.1-1-2.4-1.8-3.8-2.1c-0.7-0.1-1.4-0.1-2,0.3c-0.6,0.3-1.1,0.9-1.4,1.5c-0.7,1.3-1,2.7-1.2,4.1
				c-0.2,1.4-0.3,2.9,0.3,4.2c0.3,0.6,0.8,1,1.3,1.3c0.6,0.2,1.3,0.3,2,0.2c1.4-0.2,2.7-0.7,4-1.3c1.3-0.6,2.6-1.3,3.8-2.2
				c0.6-0.4,1.2-0.9,1.7-1.4c0.5-0.5,1.1-1,1.2-1.7h0.1c0,0.8-0.5,1.4-1,2c-0.5,0.6-1,1.1-1.6,1.6c-1.1,1-2.4,1.8-3.8,2.5
				c-1.4,0.7-2.8,1.2-4.4,1.4c-0.8,0.1-1.6,0-2.4-0.3c-0.8-0.3-1.4-1-1.7-1.8c-0.3-0.8-0.4-1.6-0.4-2.3c0-0.4,0-0.8,0.1-1.1
				c0-0.4,0.1-0.8,0.2-1.1c0.3-1.5,0.6-3,1.4-4.3c0.4-0.7,1-1.3,1.7-1.6c0.7-0.4,1.5-0.4,2.3-0.2C111.4,63.2,112.7,64.1,113.7,65.2
				L113.7,65.2z"/>
		</g>
		<g class="st5">
			<path d="M87.1,71.1c0.4,1,0.7,2,0.8,3c0.1,0.5,0.1,1.1,0,1.6c-0.1,0.5-0.3,1.1-0.8,1.4l0,0c0.2-0.5,0.3-0.9,0.4-1.4
				c0-0.5,0.1-1,0.1-1.5C87.4,73.1,87.3,72.1,87.1,71.1L87.1,71.1z"/>
		</g>
		<use xlink:href="#SVGID_3_"  style="overflow:visible;fill:none;stroke:#000000;stroke-miterlimit:10;"/>
	</g>
</g>
<g id="Calque_11">
	<g>
		<defs>
			<path id="XMLID_12_" d="M93,94.8c0,0-8.9-7.4-11.9,1.5s11.9,5.9,11.9,5.9S97.4,97.8,93,94.8z"/>
		</defs>
		<use xlink:href="#XMLID_12_"  style="overflow:visible;"/>
		<clipPath id="XMLID_14_">
			<use xlink:href="#XMLID_12_"  style="overflow:visible;"/>
		</clipPath>
		<path class="st6" d="M80.4,94.1c0,0,1.5,1.5,4.4,1.5c3,0,3-1.5,3-1.5s1.5,1.5,5.9,1.5c4.4,0,0-4.4,0-4.4H80.4V94.1z"/>
		<use xlink:href="#XMLID_12_"  style="overflow:visible;fill:none;stroke:#000000;stroke-miterlimit:10;"/>
	</g>
</g>
<g id="Calque_4">
	<ellipse cx="67.8" cy="88.2" rx="10.4" ry="9.6"/>
	<ellipse cx="107" cy="87.4" rx="8.9" ry="9.6"/>
</g>
<g id="Calque_5">
	<path class="st2" d="M68.5,79.3c0,0,8.9,3,5.9,5.9s-8.9-1.5-8.9-1.5S62.6,79.3,68.5,79.3z"/>
	<path class="st2" d="M108.5,80.8c0,0-4.4,4.4,1.5,7.4c0,0,7.4-1.5,1.5-5.9C111.5,82.2,110,80.8,108.5,80.8z"/>
</g>
<g id="Calque_6">
</g>
<g id="Calque_9">
	<g>
		<defs>
			<path id="XMLID_6_" d="M90.8,95.5c0,0-9,8.3,2.3,12.9l6.5,0.3l1.9,15.8c0,0,1.9,3.3,4.1,0.6l0.8-1.7c0,0-2.3-0.9-0.8-3.1
				c0,0-2.1-2.1-0.1-3.6c0,0,0.3-1.8-1.3-3.2c-1.6-1.4,0.4-2.9,0.4-2.9l-0.3-1.8c0,0,21.5,0.1,29.3,4.2s0,0,0,0s-11.4-8.2-4.7-34.2
				C129.1,78.8,105.5,92.8,90.8,95.5z"/>
		</defs>
		<use xlink:href="#XMLID_6_"  style="overflow:visible;fill:#FFFFFF;"/>
		<clipPath id="XMLID_15_">
			<use xlink:href="#XMLID_6_"  style="overflow:visible;"/>
		</clipPath>
		<path class="st7" d="M87.6,92.7l8.6,1.5c0,0-11,7.1,0.6,13.6c0,0,28.9,1,35.3,3.5c6.4,2.5,1.3,4.7,1.3,4.7l-28.9-7.1
			c0,0-3.7,0.7-3.4,3.1c0.3,2.4,0.3,12.3,5.1,12.4c0,0-0.5,1.4-2.8,0.5c0,0-2-2.2-2.3-4.6c-0.3-2.4-16.9-16.1-16.9-16.1L87.6,92.7z"
			/>
		<path class="st7" d="M115.5,88c0,0,12.8-5.9,14.2-7.5s-3-4-3-4L96.2,94.2C96.2,94.2,110.4,90.2,115.5,88z"/>
		<path class="st7" d="M120.8,104.9l-27.1,0.7l0.8,0.7c0,0,25.7-2.1,35.1,1.3c9.4,3.5,0,0,0,0l-1.3-2.9L120.8,104.9z"/>
		<path class="st8" d="M108.2,109.7c0,0-15.5-4.6-5.1-18.7"/>
		<path class="st9" d="M92.8,106l0.5,0.7c0,0-2.4,0.3-3.5-0.5L92.8,106z"/>
		<use xlink:href="#XMLID_6_"  style="overflow:visible;fill:none;stroke:#000000;stroke-miterlimit:10;"/>
	</g>
</g>
<g id="Calque_8">
	
		<ellipse transform="matrix(0.9965 -8.332996e-02 8.332996e-02 0.9965 -7.4081 11.8813)" class="st10" cx="138.6" cy="94.7" rx="12.8" ry="21.2"/>
	<g>
		<defs>
			
				<ellipse id="XMLID_5_" transform="matrix(0.9965 -8.332996e-02 8.332996e-02 0.9965 -7.4329 11.9395)" cx="139.3" cy="95" rx="11" ry="18.8"/>
		</defs>
		<use xlink:href="#XMLID_5_"  style="overflow:visible;fill:#FFFFFF;"/>
		<clipPath id="XMLID_17_">
			<use xlink:href="#XMLID_5_"  style="overflow:visible;"/>
		</clipPath>
		
			<ellipse transform="matrix(0.9924 -0.1234 0.1234 0.9924 -10.7997 17.0847)" class="st11" cx="132.5" cy="95.7" rx="5.3" ry="11.5"/>
		
			<ellipse transform="matrix(0.9965 -8.332996e-02 8.332996e-02 0.9965 -7.5172 11.2058)" class="st12" cx="130.5" cy="95.7" rx="2.2" ry="4.4"/>
		<path class="st12" d="M142.5,81.4l-7.1,5.9l0.5,0.9c0,0,6.6-10.5,14.4,1.4l-0.6-8.5C149.7,81.2,143.9,79.8,142.5,81.4z"/>
		<use xlink:href="#XMLID_5_"  style="overflow:visible;fill:none;stroke:#000000;stroke-miterlimit:10;"/>
	</g>
</g>
<g id="Calque_10">
	<g>
		
			<linearGradient id="SVGID_5_" gradientUnits="userSpaceOnUse" x1="242.247" y1="75.3415" x2="242.247" y2="123.4971" gradientTransform="matrix(-1 0 0 1 414.6952 0)">
			<stop  offset="0" style="stop-color:#FFFFFF"/>
			<stop  offset="0.4062" style="stop-color:#FDFDFD"/>
			<stop  offset="0.5525" style="stop-color:#F6F7F7"/>
			<stop  offset="0.6567" style="stop-color:#EBEBEC"/>
			<stop  offset="0.741" style="stop-color:#DADBDC"/>
			<stop  offset="0.8124" style="stop-color:#C4C6C7"/>
			<stop  offset="0.8333" style="stop-color:#BCBEC0"/>
			<stop  offset="0.8498" style="stop-color:#BEC0C2"/>
			<stop  offset="1" style="stop-color:#D1D3D4"/>
		</linearGradient>
		<path class="st13" d="M172.5,84L172.5,84C172.4,83.9,172.5,83.9,172.5,84L172.5,84z"/>
		
			<linearGradient id="SVGID_6_" gradientUnits="userSpaceOnUse" x1="245.4229" y1="75.3405" x2="245.4229" y2="123.5016" gradientTransform="matrix(-1 0 0 1 414.6952 0)">
			<stop  offset="0" style="stop-color:#FFFFFF"/>
			<stop  offset="0.4062" style="stop-color:#FDFDFD"/>
			<stop  offset="0.5525" style="stop-color:#F6F7F7"/>
			<stop  offset="0.6567" style="stop-color:#EBEBEC"/>
			<stop  offset="0.741" style="stop-color:#DADBDC"/>
			<stop  offset="0.8124" style="stop-color:#C4C6C7"/>
			<stop  offset="0.8333" style="stop-color:#BCBEC0"/>
			<stop  offset="0.8498" style="stop-color:#BEC0C2"/>
			<stop  offset="1" style="stop-color:#D1D3D4"/>
		</linearGradient>
		<path class="st14" d="M169.2,79.8l0.2,0.4c-0.1,0-0.2,0-0.3,0L169.2,79.8z"/>
		
			<linearGradient id="SVGID_7_" gradientUnits="userSpaceOnUse" x1="283.8594" y1="75.3404" x2="283.8594" y2="123.5022" gradientTransform="matrix(-1 0 0 1 414.6952 0)">
			<stop  offset="0" style="stop-color:#FFFFFF"/>
			<stop  offset="0.4062" style="stop-color:#FDFDFD"/>
			<stop  offset="0.5525" style="stop-color:#F6F7F7"/>
			<stop  offset="0.6567" style="stop-color:#EBEBEC"/>
			<stop  offset="0.741" style="stop-color:#DADBDC"/>
			<stop  offset="0.8124" style="stop-color:#C4C6C7"/>
			<stop  offset="0.8333" style="stop-color:#BCBEC0"/>
			<stop  offset="0.8498" style="stop-color:#BEC0C2"/>
			<stop  offset="1" style="stop-color:#D1D3D4"/>
		</linearGradient>
		<path class="st15" d="M130.7,92.6c0.2,0,0.3,0.1,0.5,0.3c0.1,0.1,0.2,0.2,0.3,0.3c-0.4,0.1-0.7,0.2-1.1,0.3
			c-0.2-0.3-0.3-0.6-0.1-0.8C130.4,92.5,130.5,92.5,130.7,92.6z"/>
		
			<linearGradient id="SVGID_8_" gradientUnits="userSpaceOnUse" x1="279.6076" y1="75.3404" x2="279.6076" y2="123.5022" gradientTransform="matrix(-1 0 0 1 414.6952 0)">
			<stop  offset="0" style="stop-color:#FFFFFF"/>
			<stop  offset="0.4062" style="stop-color:#FDFDFD"/>
			<stop  offset="0.5525" style="stop-color:#F6F7F7"/>
			<stop  offset="0.6567" style="stop-color:#EBEBEC"/>
			<stop  offset="0.741" style="stop-color:#DADBDC"/>
			<stop  offset="0.8124" style="stop-color:#C4C6C7"/>
			<stop  offset="0.8333" style="stop-color:#BCBEC0"/>
			<stop  offset="0.8498" style="stop-color:#BEC0C2"/>
			<stop  offset="1" style="stop-color:#D1D3D4"/>
		</linearGradient>
		<path class="st16" d="M135.4,90.4c-0.1-0.2-0.3-0.4-0.5-0.5c-0.4-0.3-0.8-0.3-1.1-0.2l0.4-2.8l2.1,3l-0.1,0.4c0,0-0.1,0-0.1,0
			C135.9,90.4,135.7,90.4,135.4,90.4z"/>
		
			<linearGradient id="SVGID_9_" gradientUnits="userSpaceOnUse" x1="267.5484" y1="75.338" x2="267.5484" y2="123.5052" gradientTransform="matrix(-1 0 0 1 414.6952 0)">
			<stop  offset="0" style="stop-color:#FFFFFF"/>
			<stop  offset="0.4062" style="stop-color:#FDFDFD"/>
			<stop  offset="0.5525" style="stop-color:#F6F7F7"/>
			<stop  offset="0.6567" style="stop-color:#EBEBEC"/>
			<stop  offset="0.741" style="stop-color:#DADBDC"/>
			<stop  offset="0.8124" style="stop-color:#C4C6C7"/>
			<stop  offset="0.8333" style="stop-color:#BCBEC0"/>
			<stop  offset="0.8498" style="stop-color:#BEC0C2"/>
			<stop  offset="1" style="stop-color:#D1D3D4"/>
		</linearGradient>
		<path class="st17" d="M147.1,96.8L147.1,96.8C147.1,96.8,147.2,96.8,147.1,96.8C147.2,96.8,147.1,96.8,147.1,96.8z"/>
		
			<linearGradient id="SVGID_10_" gradientUnits="userSpaceOnUse" x1="256.2848" y1="75.3404" x2="256.2848" y2="123.5022" gradientTransform="matrix(-1 0 0 1 414.6952 0)">
			<stop  offset="0" style="stop-color:#FFFFFF"/>
			<stop  offset="0.4062" style="stop-color:#FDFDFD"/>
			<stop  offset="0.5525" style="stop-color:#F6F7F7"/>
			<stop  offset="0.6567" style="stop-color:#EBEBEC"/>
			<stop  offset="0.741" style="stop-color:#DADBDC"/>
			<stop  offset="0.8124" style="stop-color:#C4C6C7"/>
			<stop  offset="0.8333" style="stop-color:#BCBEC0"/>
			<stop  offset="0.8498" style="stop-color:#BEC0C2"/>
			<stop  offset="1" style="stop-color:#D1D3D4"/>
		</linearGradient>
		<path class="st18" d="M158.5,85.5L158.5,85.5c-0.1,0.1-0.2,0.1-0.2,0.2c0,0,0,0-0.1,0c0,0,0,0,0,0l0.1-0.1l0-0.1L158.5,85.5l0-0.2
			l0-0.1c0,0,0,0.1,0,0.1L158.5,85.5z"/>
		
			<linearGradient id="SVGID_11_" gradientUnits="userSpaceOnUse" x1="283.6499" y1="75.34" x2="283.6499" y2="123.5029" gradientTransform="matrix(-1 0 0 1 414.6952 0)">
			<stop  offset="0" style="stop-color:#FFFFFF"/>
			<stop  offset="0.4062" style="stop-color:#FDFDFD"/>
			<stop  offset="0.5525" style="stop-color:#F6F7F7"/>
			<stop  offset="0.6567" style="stop-color:#EBEBEC"/>
			<stop  offset="0.741" style="stop-color:#DADBDC"/>
			<stop  offset="0.8124" style="stop-color:#C4C6C7"/>
			<stop  offset="0.8333" style="stop-color:#BCBEC0"/>
			<stop  offset="0.8498" style="stop-color:#BEC0C2"/>
			<stop  offset="1" style="stop-color:#D1D3D4"/>
		</linearGradient>
		<path class="st19" d="M131.5,93.8c-0.1,0.1-0.3,0.1-0.5,0.1c-0.2,0-0.3-0.1-0.5-0.3c0,0,0,0,0,0c0.3-0.1,0.7-0.2,1-0.2
			C131.6,93.5,131.6,93.7,131.5,93.8z"/>
		
			<linearGradient id="SVGID_12_" gradientUnits="userSpaceOnUse" x1="253.5814" y1="101.7309" x2="253.5814" y2="101.7309" gradientTransform="matrix(-1 0 0 1 414.6952 0)">
			<stop  offset="0" style="stop-color:#FFFFFF"/>
			<stop  offset="0.4062" style="stop-color:#FDFDFD"/>
			<stop  offset="0.5525" style="stop-color:#F6F7F7"/>
			<stop  offset="0.6567" style="stop-color:#EBEBEC"/>
			<stop  offset="0.741" style="stop-color:#DADBDC"/>
			<stop  offset="0.8124" style="stop-color:#C4C6C7"/>
			<stop  offset="0.8333" style="stop-color:#BCBEC0"/>
			<stop  offset="0.8498" style="stop-color:#BEC0C2"/>
			<stop  offset="1" style="stop-color:#D1D3D4"/>
		</linearGradient>
		<path class="st20" d="M161.1,101.7"/>
		<path d="M180.4,102.5c0,0-0.1-0.1-0.3-0.3c-0.1,0.2-0.2,0.5-0.2,0.7c-0.4,1.1-0.8,2.2-1.1,3.3c-0.4,1.8,0.7,3.5,2.4,4
			c1.1,0.3,2.3,0.2,3.3-0.3c1.5-0.9,1.7-2.7,0.8-4c-0.5-0.7-1.4-0.9-2.2-0.6c-0.8,0.3-1.2,1-1.3,1.8c-0.1,0.9,0.3,1.6,1.1,1.9
			c0,0,0.1,0.1,0.2,0.1c-0.1,0-0.1,0.1-0.2,0.1c-0.4,0.2-0.8,0.1-1.2,0c-1.1-0.3-2-1.1-1.9-2.6c0.1-0.5,0.2-1,0.3-1.5
			c0.1-0.5,0.3-0.9,0.5-1.4c0.2-0.4,0.3-0.8,0.5-1.3c0.2,0,0.3,0.1,0.5,0.1c1.4,0.4,2.7,0.3,4-0.3c2.8-1.2,4.8-4.4,4.2-7.4
			c-0.2-1-0.5-2-1-2.9c-0.6-1.1-1.3-2.1-2-3.1c-0.3-0.3-0.5-0.7-0.8-1c-0.1-0.1,0.2-0.7,0.2-0.8c0.1-0.4,0.3-0.8,0.4-1.2
			c0.5-1.4,0.6-3.1,0.5-4.5c-0.1-0.4-0.1-0.9-0.2-1.3c-0.3-1-0.7-1.9-1.6-2.4c0,0,0,0,0-0.1c-0.1,0-0.3,0-0.4-0.1
			c-0.3,0.2-0.6,0.4-0.8,0.7c-0.3,0.4-0.6,0.7-0.8,1.1c-0.4,0.6-0.6,1.2-0.8,1.9l0.1,0l-0.1,0.2l-0.1,0c-0.3,0.9-0.4,1.9-0.3,2.9
			c0,0.8,0.1,1.6,0.3,2.3c0.4,0.2,0.7,0.3,1,0.5c0.2,0.1,0.5,0.2,0.6,0.3c0.2,0.1,0.3,0.2,0.5,0.3c0.2,0.1,0.4,0.2,0.4,0.2l-0.1,0.2
			c0,0-0.1-0.1-0.4-0.2c-0.1-0.1-0.3-0.2-0.4-0.3c-0.2-0.1-0.4-0.2-0.6-0.3c-0.2-0.1-0.5-0.3-0.8-0.4c0.3,1.1,0.8,2.2,1.6,3.2
			c0.1,0.2,0.1,0.3,0.1,0.5c0,0.1-0.1,0.2-0.1,0.2c-0.2,0.7-0.5,1.4-0.7,2.1c0.1,0.1,0.2,0.1,0.2,0.1l-0.1,0.2c0,0-0.1-0.1-0.3-0.2
			c0,0,0,0,0,0c-2.1-0.5-4,0.9-4.7,2.8c-0.5,1.2-0.5,2-0.3,3.3c0,0.2,0.1,0.4,0.2,0.6c0.1,0.1,0.2,0.2,0.3,0.3
			c0.1,0.1,0.3,0.3,0.4,0.4c0.2,0.2,0.5,0.5,0.6,0.7c0.7,0.8,1.1,1.2,1.1,1.2L180.4,102.5z M185.8,86c-0.1,0.3-0.2,0.7-0.3,1.1
			c-0.1-0.2-0.2-0.2-0.3-0.3c-0.5-0.7-0.9-1.5-1.2-2.3c-0.3-0.8-0.5-1.6-0.4-2.4c0-0.3,0.1-0.6,0.2-0.9c0.1-0.3,0.4-0.5,0.7-0.4
			c0.3,0.1,0.5,0.2,0.7,0.5c0.1,0.2,0.2,0.4,0.3,0.6C185.9,83.2,186.1,84.6,185.8,86z M181.5,101.6c0.6-1.9,1.3-3.7,1.9-5.6
			c0.4,0.2,0.7,0.6,0.9,0.9c0.9,1.3,0,2.8-1.1,3.2c-0.1,0-0.2,0-0.2,0.1c-0.1,0.1-0.2,0.2-0.2,0.4c0,0.2,0.1,0.3,0.3,0.3
			c0.1,0,0.2,0,0.3,0c1.3-0.2,2.6-1.4,2.8-2.7c0.3-1.8-0.3-3.2-1.6-4.3c-0.1-0.1-0.2-0.2-0.3-0.2c0.2-0.7,0.5-1.4,0.7-2.2
			c0.1,0.1,0.1,0.1,0.1,0.1c0.9,1,1.6,2,2.2,3.1c0.5,1,0.7,2,0.7,3.1c-0.1,1.8-1.2,3.4-2.9,4C183.9,102.1,182.7,102.1,181.5,101.6z
			 M180.6,101.1c-1.1-0.6-1.4-2.4-0.9-3.5c0.5-1.1,1.6-2,2.8-1.8C181.8,97.5,181.2,99.3,180.6,101.1z"/>
		<path d="M179.3,101.3c0.2,0.2,0.4,0.4,0.5,0.6c-0.5-0.4-1-0.8-1.3-1.4c0.1,0.1,0.1,0.1,0.2,0.2C178.9,100.8,179.1,101,179.3,101.3
			z"/>
		<path d="M135.5,90.6c0,0,0-0.1-0.1-0.1c0.2,0,0.5,0,0.7,0c0,0,0.1,0,0.1,0l0,0.1c0,0-0.1,0-0.1,0
			C135.9,90.5,135.7,90.6,135.5,90.6z"/>
		<path d="M161.6,99.8c0.1,0,0.2,0,0.3,0c0,0.1,0,0.1,0,0.2c-0.1,0-0.2,0-0.3,0c-0.4,0-0.8,0-1.2,0c0-0.1-0.1-0.1-0.1-0.2
			C160.8,99.8,161.2,99.8,161.6,99.8z"/>
		<path d="M158.6,86.6C158.7,86.6,158.7,86.6,158.6,86.6c0.1,0.3,0.1,0.6,0.2,0.9c-0.1,0-0.1,0-0.2,0c-0.1-0.3-0.1-0.6-0.1-0.9
			L158.6,86.6z"/>
		<path d="M159.2,88.8l-0.1-0.3l-0.1-0.3l-0.1-0.1l0,0c0,0,0,0,0,0l0-0.1c0-0.1,0-0.1-0.1-0.2c0.1,0,0.1,0,0.2,0c0,0,0,0.1,0,0.1
			l0,0.1c0,0,0,0,0,0l0,0l0.1,0.1l0.1,0.3l0.1,0.3c0,0,0,0.1,0,0.1C159.3,88.8,159.3,88.8,159.2,88.8
			C159.2,88.8,159.2,88.8,159.2,88.8z"/>
		<path d="M158.7,86.3C158.7,86.3,158.7,86.4,158.7,86.3c0,0.1-0.1,0.1-0.1,0.1l-0.1,0c0,0,0-0.1,0-0.1c0-0.2,0-0.4,0-0.5
			c0.1,0,0.1-0.1,0.2-0.1l0,0C158.7,85.9,158.7,86.1,158.7,86.3z"/>
		<path d="M162.7,94.2c-0.2-0.2-0.3-0.5-0.5-0.7c0,0,0,0,0,0c0,0,0,0,0,0c0,0,0,0-0.1,0c-0.3-0.5-0.7-0.9-1-1.4
			c-0.5-0.7-1-1.4-1.4-2.1c-0.2-0.3-0.4-0.6-0.5-1c0.1,0,0.1-0.1,0.2-0.1c0.2,0.3,0.3,0.6,0.5,1c0.9,1.5,2,2.8,2.9,4.2
			c0.1,0.2,0.3,0.4,0.4,0.6l-0.1,0.1C163,94.6,162.9,94.4,162.7,94.2z"/>
		<path d="M163.4,99.3c0.2-0.1,0.4-0.3,0.6-0.5c0.1-0.2,0.2-0.3,0.3-0.5c0,0,0-0.1,0-0.1l0-0.1l0-0.1c0,0,0-0.1,0-0.2l0,0l0,0
			c0,0,0,0,0,0l0,0l0-0.1c0-0.4-0.1-0.8-0.3-1.2c-0.2-0.4-0.4-0.8-0.6-1.1c-0.1-0.1-0.1-0.2-0.2-0.3l0.1-0.1
			c0.1,0.1,0.1,0.2,0.2,0.3c0.2,0.4,0.4,0.8,0.6,1.2c0.2,0.4,0.3,0.8,0.3,1.3l0,0.1l0,0c0,0,0,0,0,0l0,0l0,0c0,0.1,0,0.1,0,0.2
			l0,0.1l0,0.1c0,0.1,0,0.1,0,0.2c-0.1,0.2-0.2,0.4-0.3,0.6l0,0l0,0c-0.2,0.2-0.5,0.4-0.7,0.6C163.4,99.4,163.4,99.3,163.4,99.3z"/>
		<polygon points="170.3,80.1 170.5,80.1 171,80.1 171.1,80.3 170.5,80.3 170.3,80.3 170.2,80.3 170,80.3 169.9,80.1 170.1,80.1 		
			"/>
		<path d="M169.1,80.2c0.1,0,0.2,0,0.3,0l0.1,0.2c-0.2,0-0.3,0-0.5,0L169.1,80.2z"/>
		<path d="M163.2,99.4c0,0.1,0,0.1,0,0.2c-0.1,0-0.1,0.1-0.2,0.1c-0.3,0.1-0.6,0.2-0.9,0.2c0-0.1,0-0.1,0-0.2c0.3,0,0.6-0.1,0.8-0.2
			C163,99.5,163.1,99.4,163.2,99.4z"/>
		<path d="M158.8,85.2c0,0.1,0,0.1,0,0.2l0,0.1c-0.1,0-0.1,0.1-0.2,0.1l0,0l0-0.2c0,0,0-0.1,0-0.1l0.1-0.1l0.1-0.1l0.1-0.1
			c0,0,0.1-0.1,0.1-0.1c0,0,0,0,0,0c0,0.1,0,0.1-0.1,0.2L158.8,85.2z"/>
		<path d="M167.3,80.5c-0.1,0-0.2,0-0.3,0l-0.3,0c-0.2,0-0.4,0-0.6,0.1c-0.2,0-0.4,0.1-0.6,0.1l-0.6,0.1l-0.2,0l-0.2,0l-0.3,0.1
			l-0.1,0l0-0.2l0,0l0.3-0.1l0.2,0l0.2,0l0.6-0.1c0.2,0,0.4-0.1,0.6-0.1c0.2,0,0.4-0.1,0.6-0.1l0.3,0c0.1,0,0.2,0,0.3,0
			c0.5,0,1-0.1,1.5-0.1l0,0.2C168.2,80.4,167.7,80.5,167.3,80.5z"/>
		<path d="M158.5,99.4L158.5,99.4L158.5,99.4L158.5,99.4L158.5,99.4L158.5,99.4l0.2,0l0.3,0.1c0.4,0.1,0.8,0.2,1.1,0.2
			c0,0.1,0.1,0.1,0.1,0.2c-0.4-0.1-0.9-0.1-1.3-0.2l-0.3-0.1l-0.1,0l0,0l0,0l0,0l0,0l0,0l-0.2-0.1c0,0-0.1,0-0.1,0
			c0-0.1-0.1-0.1-0.1-0.2c0.1,0,0.2,0.1,0.3,0.1L158.5,99.4z"/>
		<path d="M163.5,81.2c-0.4,0.1-0.8,0.3-1.2,0.4c-0.4,0.2-0.8,0.3-1.1,0.6c-0.4,0.2-0.7,0.5-1,0.8c-0.2,0.1-0.3,0.3-0.4,0.5
			l-0.1,0.1l0,0.1l0,0c0,0,0,0,0,0l0,0l0,0c-0.1,0.1-0.1,0.2-0.2,0.3c-0.1,0.2-0.2,0.3-0.3,0.5c-0.1,0.1-0.2,0.2-0.3,0.3
			c0,0,0,0,0,0c0.1-0.3,0.3-0.6,0.5-0.9c0.1-0.1,0.1-0.2,0.2-0.3l0,0l0,0c0,0,0,0,0,0l0,0l0-0.1l0.1-0.1c0.1-0.2,0.3-0.3,0.4-0.5
			c0.3-0.3,0.7-0.6,1-0.8c0.4-0.2,0.8-0.4,1.2-0.6c0.4-0.2,0.8-0.3,1.2-0.4c0.1,0,0.2-0.1,0.3-0.1l0,0.2
			C163.6,81.1,163.5,81.2,163.5,81.2z"/>
		<path d="M131.7,91.3c-0.4,0.1-0.8,0.3-1.3,0.5l0-0.1c0.4-0.2,0.8-0.3,1.2-0.5c0.7-0.2,1.3-0.4,2-0.5c0,0,0,0.1,0.1,0.1
			C133.1,90.9,132.4,91.1,131.7,91.3z"/>
		<path d="M147.5,93.9l-0.3-0.2c-0.1-0.1-0.2-0.1-0.3-0.2l-0.6-0.3c-0.1-0.1-0.2-0.1-0.3-0.1l-0.3-0.1l-0.3-0.1
			c-0.1,0-0.2-0.1-0.3-0.1l-0.6-0.3l0,0l0,0l-0.5-0.3l-0.3-0.1l-0.3-0.1l0,0l0,0c0,0-0.1,0-0.2,0c0,0-0.1,0-0.1,0l-0.1,0l-0.3-0.1
			c-0.1,0-0.2-0.1-0.3-0.1l-0.2-0.1l-0.2-0.1c-0.5-0.2-1-0.3-1.4-0.4c-0.5-0.1-1-0.2-1.5-0.3c-0.5-0.1-1-0.1-1.5-0.2
			c-0.4,0-0.8,0-1.2,0l0-0.1c0.4,0,0.8,0,1.2,0c0.5,0,1,0.1,1.5,0.2c0.5,0.1,1,0.2,1.5,0.3c0.5,0.1,1,0.3,1.5,0.4l0.2,0.1l0.2,0.1
			c0.1,0,0.2,0.1,0.4,0.1l0.3,0.1l0.1,0c0,0,0,0,0.1,0c0,0,0.1,0,0.1,0c0,0,0,0,0.1,0c0,0,0,0,0.1,0l0,0l0.3,0.1l0.3,0.1l0.5,0.3
			l0.6,0.3c0.1,0,0.2,0.1,0.3,0.1l0.3,0.1l0.3,0.1c0.1,0,0.2,0.1,0.3,0.1l0.6,0.3c0.1,0,0.2,0.1,0.3,0.2l0.3,0.2
			c0.2,0.1,0.3,0.2,0.5,0.3l-0.1,0.1C147.9,94.1,147.7,94,147.5,93.9z"/>
		<path d="M130.3,91.8l0,0.1c-0.4,0.2-0.8,0.4-1.2,0.6c-0.1,0-0.1,0.1-0.2,0.1v-0.1c0,0,0.1,0,0.1-0.1
			C129.4,92.2,129.8,92,130.3,91.8z"/>
		<path d="M157.6,99.3l-0.3-0.1c-0.1,0-0.2-0.1-0.3-0.1l-0.6-0.2l-0.2-0.1l-0.1,0l0,0l0,0l0,0l-0.3-0.1c-0.1,0-0.2-0.1-0.3-0.1
			l-0.3-0.1c-0.1,0-0.2-0.1-0.3-0.1l-0.3-0.2l-0.3-0.2l-0.3-0.2l-0.3-0.2l-0.3-0.2l-0.3-0.2l-0.3-0.2c-0.2-0.1-0.4-0.2-0.6-0.3
			l-0.6-0.3l-0.3-0.2c-0.1-0.1-0.2-0.1-0.3-0.2l-0.6-0.4l-0.6-0.4l-0.3-0.2l-0.3-0.2l-0.6-0.3l-0.4-0.2l0.1-0.1l0.4,0.2l0.6,0.3
			l0.3,0.2l0.3,0.2l0.6,0.4l0.6,0.4c0.1,0.1,0.2,0.1,0.3,0.2l0.3,0.2l0.6,0.3c0.2,0.1,0.4,0.2,0.6,0.3l0.3,0.2l0.3,0.2l0.3,0.2
			l0.3,0.2l0.3,0.2l0.3,0.2l0.3,0.2c0.1,0,0.2,0.1,0.3,0.1l0.3,0.1c0.1,0,0.2,0.1,0.3,0.1l0.3,0.1l0,0l0,0l0,0l0,0l0,0l0.1,0
			l0.2,0.1l0.6,0.2c0.1,0,0.2,0.1,0.3,0.1l0.3,0.1c0,0,0.1,0,0.1,0c0,0.1,0.1,0.1,0.1,0.2C157.8,99.4,157.7,99.3,157.6,99.3z"/>
		<path d="M182.6,81.5l-0.1,0l-0.5-0.1l-0.3-0.1c-0.1,0-0.2-0.1-0.3-0.1l-0.6-0.1c-0.1,0-0.2,0-0.3-0.1l-0.3-0.1l-0.3-0.1
			c-0.1,0-0.2,0-0.3-0.1l-0.6-0.1c-0.1,0-0.2,0-0.3,0l-0.3,0l-0.6-0.1c-0.2,0-0.4,0-0.6-0.1c-0.2,0-0.4,0-0.6-0.1
			c-0.4,0-0.9-0.1-1.3-0.1c-0.2,0-0.4,0-0.6,0l-0.6,0l-0.3,0l-0.3,0l-0.6,0c-0.3,0-0.5,0-0.8,0l-0.1-0.2c0.3,0,0.6,0,0.9,0l0.6,0
			l0.3,0l0.3,0l0.6,0c0.2,0,0.4,0,0.6,0c0.4,0,0.9,0,1.3,0.1c0.2,0,0.4,0,0.6,0c0.2,0,0.4,0,0.6,0.1l0.6,0.1l0.3,0
			c0.1,0,0.2,0,0.3,0l0.6,0.1c0.1,0,0.2,0,0.3,0.1l0.3,0.1l0.3,0.1c0.1,0,0.2,0,0.3,0.1l0.6,0.1c0.1,0,0.2,0,0.3,0.1l0.3,0.1
			l0.5,0.1l0.1,0L182.6,81.5z"/>
		<path d="M143.9,95c1,0.5,2,1,3,1.5l-0.1,0.1c-1-0.5-2-1.1-3-1.5L143.9,95z"/>
		<path d="M179,85.4c0.1,0,0.2,0.1,0.3,0.1l0,0.2c-0.1,0-0.3-0.1-0.4-0.1c-1-0.3-2-0.6-3.2-0.9c-0.9-0.2-1.9-0.4-2.9-0.6l0-0.2
			c1,0.2,2,0.4,2.9,0.6C177,84.7,178.1,85,179,85.4z"/>
		<path d="M162.3,83.3c-0.1,0-0.1,0-0.2,0c-0.1,0-0.1,0-0.2,0c0-0.1,0-0.1,0-0.2c0.2,0,0.3-0.1,0.5-0.1c0.4-0.1,0.7-0.1,1.1-0.1
			c0,0.1,0.1,0.1,0.1,0.2c-0.4,0-0.8,0.1-1.2,0.1L162.3,83.3z"/>
		<path d="M130.2,93.5C130.2,93.5,130.2,93.6,130.2,93.5c-0.3,0.2-0.7,0.3-1.1,0.5c-0.1,0-0.2,0.1-0.3,0.1v-0.1
			c0.1,0,0.2-0.1,0.2-0.1C129.4,93.7,129.8,93.6,130.2,93.5z"/>
		<path d="M131.5,93.3c-0.3,0.1-0.7,0.2-1,0.2c0,0-0.1-0.1-0.1-0.1c0.3-0.1,0.7-0.2,1.1-0.3C131.5,93.2,131.5,93.2,131.5,93.3z"/>
		<path d="M179.7,85.6c1.1,0.4,2,0.8,2.7,1.1c0.4,0.2,0.7,0.3,1,0.5c0.2,0.1,0.5,0.2,0.6,0.3c0.2,0.1,0.3,0.2,0.5,0.3
			c0.2,0.1,0.4,0.2,0.4,0.2l-0.1,0.2c0,0-0.1-0.1-0.4-0.2c-0.1-0.1-0.3-0.2-0.4-0.3c-0.2-0.1-0.4-0.2-0.6-0.3
			c-0.2-0.1-0.5-0.3-0.8-0.4c-0.7-0.4-1.7-0.8-2.8-1.2L179.7,85.6z"/>
		<path d="M157.7,86.7c0-0.1,0.1-0.2,0.1-0.4c0.1-0.1,0.2-0.2,0.3-0.3c-0.1,0.2-0.1,0.4-0.2,0.5C157.8,86.6,157.7,86.7,157.7,86.7z"
			/>
		<path d="M165.9,83.1c0-0.1,0-0.1-0.1-0.2c0.6,0,1.1,0,1.7,0.1c0.3,0,0.6,0.1,0.9,0.1l0,0.2c-0.3,0-0.6-0.1-0.9-0.1
			C166.9,83.1,166.4,83.1,165.9,83.1z"/>
		<path d="M165.4,82.9c0,0.1,0.1,0.1,0.1,0.2c-0.2,0-0.4,0-0.6,0c-0.3,0-0.7,0-1,0c0-0.1-0.1-0.1-0.1-0.2c0.4,0,0.8,0,1.2-0.1
			C165.1,82.9,165.3,82.9,165.4,82.9z"/>
		<path d="M151.7,99.4c0.4,0.3,0.9,0.5,1.3,0.7v0.2v0c-0.5-0.2-0.9-0.5-1.4-0.8c-1-0.6-1.9-1.2-2.9-1.8c0,0-0.1,0-0.1-0.1
			c0-0.1-0.1-0.1-0.1-0.2c0-0.1-0.1-0.1-0.1-0.2c0.1,0.1,0.3,0.2,0.4,0.2C149.8,98.2,150.8,98.8,151.7,99.4z"/>
		<path d="M132.4,93c0.1,0,0.3,0,0.4-0.1l0.4-0.1l0.4,0c0.1,0,0.3,0,0.4,0c0.1,0,0.3,0,0.4,0l0.2,0c0.1,0,0.1,0,0.2,0l0.4,0l0.2,0
			l0.1,0l0.1,0c0,0,0,0,0,0l0,0.1c0,0,0,0,0,0c-1.2-0.1-2.3,0-3.5,0.2c-0.2,0-0.5,0.1-0.7,0.1c0,0,0-0.1,0-0.1
			C132,93.1,132.2,93,132.4,93z"/>
		<path d="M157.9,88.7c0,0.1,0,0.1,0,0.2c-0.1,0-0.1,0-0.2,0c0,0,0-0.1,0-0.1c-0.1-0.2-0.1-0.5-0.1-0.7c0-0.1,0-0.2,0-0.3
			c0.1,0,0.1,0,0.2,0c0,0.1,0,0.2,0,0.3C157.8,88.3,157.9,88.5,157.9,88.7z"/>
		<path d="M169.7,83.5c-0.3-0.1-0.7-0.1-1-0.1l0-0.2c0.3,0,0.7,0.1,1,0.1c0.7,0.1,1.3,0.2,2,0.3l0.2,0.3c0,0,0,0,0,0
			C171.2,83.7,170.4,83.6,169.7,83.5z"/>
		<path d="M157.6,86.9c0.1,0,0.1-0.1,0.2-0.1c0,0.2,0,0.3-0.1,0.5c0,0.1,0,0.1,0,0.2c-0.1,0-0.1,0-0.2,0c0-0.1,0-0.2,0-0.3
			C157.6,87.2,157.6,87.1,157.6,86.9z"/>
		<path d="M159,91.4c0.4,0.7,0.9,1.4,1.4,2.1c-0.1,0-0.2,0-0.2,0c-0.5-0.7-0.9-1.3-1.3-2c-0.3-0.4-0.5-0.9-0.7-1.3
			c-0.1-0.1-0.1-0.2-0.1-0.4c0.1,0,0.1-0.1,0.2-0.1c0,0.1,0.1,0.3,0.2,0.4C158.6,90.6,158.8,91,159,91.4z"/>
		<path d="M161,102c-0.4,0.1-0.9,0.2-1.3,0.2c0-0.1,0-0.1-0.1-0.2c0.5,0,0.9-0.1,1.4-0.2C160.9,101.8,161,101.9,161,102z"/>
		<path d="M139.4,93.3c1.1,0.3,2.2,0.7,3.3,1.1c0.3,0.1,0.6,0.3,0.9,0.4l0,0.1c-0.3-0.1-0.6-0.3-0.9-0.4c-1.1-0.4-2.2-0.8-3.3-1.1
			c-1-0.3-2.1-0.4-3.2-0.5l0-0.1C137.3,92.9,138.3,93.1,139.4,93.3z"/>
		<path d="M160.4,93.8c0.1,0,0.2,0.1,0.3,0.1c0,0,0,0,0,0c0,0.1,0.1,0.1,0.1,0.2c0,0-0.1,0.1-0.1,0.1c-0.1-0.1-0.1-0.2-0.2-0.2
			C160.5,94,160.5,93.9,160.4,93.8z"/>
		<path d="M161.8,101.4l0.2-0.1c0,0,0.1,0,0.1-0.1c0,0.1,0,0.1,0,0.2l-0.2,0.1c-0.2,0.1-0.5,0.2-0.8,0.3c0,0,0,0,0,0
			c0-0.1,0-0.1,0-0.2c0,0,0,0,0,0C161.4,101.6,161.6,101.5,161.8,101.4z"/>
		<path d="M161.8,83.4C161.8,83.4,161.8,83.4,161.8,83.4C161.8,83.4,161.8,83.4,161.8,83.4c0,0-0.1,0.1-0.2,0.1
			C161.7,83.4,161.7,83.4,161.8,83.4z"/>
		<path d="M162.3,101.1L162.3,101.1c0.1-0.1,0.1-0.1,0.1-0.1c0.2-0.2,0.4-0.4,0.5-0.6c0.1-0.2,0.2-0.5,0.2-0.7c0,0,0,0,0,0
			c0-0.1,0-0.1,0-0.2c0-0.2,0-0.4,0-0.6c0-0.1,0-0.1,0-0.2c0,0,0-0.1,0-0.1l0-0.1l0-0.1c0,0,0,0,0,0l0,0l-0.1-0.2
			c-0.2-0.5-0.4-1-0.7-1.4c-0.1-0.1-0.1-0.3-0.2-0.4l0.1-0.1c0.1,0.1,0.2,0.3,0.2,0.4c0.3,0.5,0.5,0.9,0.7,1.4
			c0.1,0.4,0.3,0.8,0.3,1.3c0,0.1,0,0.1,0,0.2c0,0,0,0.1,0,0.1c0,0.3-0.1,0.5-0.2,0.8c-0.1,0.2-0.3,0.5-0.5,0.7c0,0,0,0-0.1,0.1
			l-0.1,0.1c-0.1,0-0.1,0.1-0.2,0.1c0,0,0,0,0,0C162.3,101.3,162.3,101.2,162.3,101.1C162.3,101.1,162.3,101.1,162.3,101.1z"/>
		<path d="M158.7,102.2c-0.3,0-0.6-0.1-0.8-0.1l-0.2,0l-0.2,0c-0.1,0-0.1,0-0.2,0l-0.2-0.1c-0.1,0-0.3-0.1-0.4-0.1
			c-0.1,0-0.3-0.1-0.4-0.1c-0.1,0-0.1,0-0.2-0.1l-0.2-0.1c-0.1,0-0.3-0.1-0.4-0.1c0,0-0.1,0-0.1,0l-0.2-0.3l0,0
			c0.1,0.1,0.3,0.1,0.4,0.2c0.1,0,0.3,0.1,0.4,0.1l0.2,0.1c0.1,0,0.1,0,0.2,0.1c0.1,0,0.3,0.1,0.4,0.1c0.1,0,0.3,0.1,0.4,0.1
			l0.2,0.1c0.1,0,0.1,0,0.2,0l0.2,0l0.2,0c0.3,0,0.5,0.1,0.8,0.1c0.2,0,0.5,0,0.7,0c0,0.1,0,0.1,0.1,0.2
			C159.2,102.2,159,102.2,158.7,102.2z"/>
		<path d="M147.2,96.8C147.2,96.8,147.1,96.8,147.2,96.8l0-0.1c0.1,0.1,0.2,0.1,0.3,0.2C147.4,96.8,147.3,96.8,147.2,96.8z"/>
		<path d="M172.5,83.9C172.5,83.9,172.4,83.9,172.5,83.9l-0.2-0.3c0.1,0,0.1,0,0.2,0L172.5,83.9z"/>
		<path d="M158,89.2c0,0.1,0.1,0.2,0.1,0.3c-0.1,0-0.1,0.1-0.2,0.1c-0.1-0.2-0.1-0.4-0.2-0.6C157.9,89.1,158,89.2,158,89.2z"/>
		<path d="M161,94.4c0.4,0.5,0.7,1,1.1,1.6l-0.1,0.1c-0.3-0.5-0.7-1.1-1.1-1.6C160.9,94.4,160.9,94.4,161,94.4z"/>
		<path d="M159.1,84.4c0.1-0.1,0.1-0.1,0.2-0.2c0.1-0.1,0.2-0.1,0.3-0.2c0.1-0.1,0.2-0.1,0.3-0.2c0.4-0.2,0.9-0.4,1.4-0.5
			c-0.1,0.1-0.2,0.2-0.2,0.3c0,0-0.1,0-0.1,0c-0.1,0-0.2,0.1-0.3,0.1c-0.2,0.1-0.4,0.2-0.6,0.3c-0.1,0.1-0.2,0.1-0.3,0.2
			c-0.1,0.1-0.2,0.1-0.3,0.2c-0.2,0.1-0.3,0.3-0.5,0.4c0,0,0,0,0,0c0,0-0.1,0.1-0.1,0.1l-0.1,0.1l-0.1,0.1l-0.1,0.1l0,0.1l-0.1,0.1
			l0,0.1l0,0.1l-0.1,0.1c0,0,0,0,0,0c-0.1,0.1-0.2,0.2-0.3,0.2c0,0,0,0,0,0c0-0.1,0.1-0.2,0.2-0.3l0.1-0.2l0-0.1l0.1-0.1l0.1-0.1
			l0.1-0.1l0.1-0.1l0.1-0.1c0,0,0.1-0.1,0.1-0.1c0,0,0,0,0,0C158.8,84.6,158.9,84.5,159.1,84.4z"/>
		<path d="M158.3,85.6c0.1,0,0.1-0.1,0.2-0.1c0.1,0,0.1-0.1,0.2-0.1c0.3-0.1,0.6-0.2,0.8-0.3c0.3-0.1,0.6-0.1,0.9-0.2
			c0,0,0,0.1,0,0.1c0,0,0,0.1,0,0.1c-0.3,0-0.6,0.1-0.9,0.2c-0.3,0.1-0.6,0.2-0.9,0.3c-0.1,0-0.1,0.1-0.2,0.1c0,0-0.1,0-0.1,0.1
			c-0.1,0.1-0.2,0.2-0.3,0.2c-0.1,0.1-0.2,0.2-0.3,0.3c-0.1,0.1-0.2,0.3-0.3,0.4c0,0,0,0.1-0.1,0.1c-0.1,0-0.2,0.1-0.3,0.2
			c0,0-0.1,0-0.1,0.1c0.1-0.2,0.2-0.3,0.3-0.4c0.2-0.3,0.4-0.5,0.6-0.7C158,85.8,158.1,85.8,158.3,85.6
			C158.3,85.7,158.3,85.7,158.3,85.6z"/>
		<path d="M156.6,89.2c0.1,0,0.1-0.1,0.2-0.1c0,0.1,0,0.2,0,0.3c0,0.3,0.1,0.6,0.2,1c-0.1,0-0.1,0.1-0.2,0.1
			c-0.1-0.3-0.2-0.7-0.2-1.1C156.6,89.3,156.6,89.3,156.6,89.2z"/>
		<path d="M129.9,95.2c1.1-0.1,2.3-0.2,3.5-0.2c0.3,0,0.6,0,0.9,0l0.9,0.1l0.1,0c0,0,0,0,0.1,0l0.1,0l0.2,0l0.4,0.1
			c0.1,0,0.3,0,0.4,0.1l0.4,0.1c0.6,0.1,1.2,0.3,1.8,0.4c0,0-0.1,0.1-0.1,0.1c-0.6-0.2-1.2-0.3-1.8-0.4l-0.4-0.1
			c-0.1,0-0.3-0.1-0.4-0.1l-0.4-0.1l-0.2,0l-0.1,0c0,0,0,0-0.1,0l-0.1,0l-0.9-0.1c-0.3,0-0.6,0-0.9,0c-1.1,0-2.3,0-3.4,0.2
			c-0.3,0-0.6,0.1-0.9,0.1l-0.2,0v-0.1l0.2,0C129.3,95.3,129.6,95.2,129.9,95.2z"/>
		<path d="M140.1,96.5c-0.4-0.2-0.9-0.3-1.3-0.4c0,0,0-0.1,0-0.1c1.3,0.4,2.6,0.9,3.9,1.5l0,0.1C141.8,97.1,141,96.8,140.1,96.5z"/>
		<path d="M157.6,92.1c0.3,0.6,0.6,1.2,1,1.8c0,0,0,0-0.1,0.1c0,0-0.1,0.1-0.1,0.1c-0.1-0.2-0.2-0.4-0.3-0.5
			c-0.1-0.2-0.3-0.4-0.4-0.6c-0.1-0.2-0.2-0.4-0.3-0.7c-0.2-0.4-0.4-0.9-0.6-1.4c0-0.1,0-0.1-0.1-0.2c0.1,0,0.1-0.1,0.2-0.1
			c0,0.1,0.1,0.2,0.1,0.3C157.3,91.2,157.4,91.7,157.6,92.1z"/>
		<path d="M149.3,101.1c1,0.6,1.9,1.2,2.9,1.7c0.2,0.1,0.5,0.3,0.7,0.4c0,0,0.1,0,0.1,0.1v0.2c-0.1,0-0.1-0.1-0.2-0.1
			c-0.3-0.1-0.5-0.2-0.8-0.4c-1-0.5-1.9-1.1-2.9-1.8c-0.5-0.3-1-0.6-1.4-0.9c-0.2-0.1-0.5-0.3-0.7-0.4c-0.2-0.1-0.5-0.3-0.7-0.4
			c-1-0.6-2-1.1-3-1.6c-0.1,0-0.2-0.1-0.3-0.1l0-0.1c0.1,0,0.2,0.1,0.3,0.1C145.4,98.7,147.4,99.9,149.3,101.1z"/>
		<path d="M182,92.4c-0.1,0-0.1-0.1-0.2-0.1c-0.1,0-0.1-0.1-0.2-0.1c-0.1-0.1-0.3-0.2-0.4-0.3c-0.1-0.1-0.3-0.2-0.4-0.3
			c-0.2-0.1-0.3-0.2-0.5-0.3c-0.7-0.4-1.5-0.8-2.4-1.3c-0.2-0.1-0.5-0.2-0.7-0.3c-0.1,0-0.1-0.1-0.2-0.1l0,0c0,0,0,0,0,0l-0.1,0
			c-0.1-0.1-0.2-0.1-0.4-0.2c-0.3-0.1-0.5-0.2-0.8-0.4c-0.1-0.1-0.3-0.1-0.4-0.2c-0.1-0.1-0.3-0.1-0.4-0.2c-0.3-0.1-0.6-0.2-0.9-0.4
			c-0.1-0.1-0.3-0.1-0.4-0.2c-0.1-0.1-0.3-0.1-0.5-0.2c-0.3-0.1-0.6-0.2-0.9-0.4l0-0.2c0,0,0,0,0,0c0.3,0.1,0.6,0.2,0.9,0.4
			c0.2,0.1,0.3,0.1,0.5,0.2c0.1,0.1,0.3,0.1,0.4,0.2c0.3,0.1,0.6,0.2,0.9,0.4c0.1,0.1,0.3,0.1,0.4,0.2c0.1,0.1,0.3,0.1,0.4,0.2
			c0.3,0.1,0.5,0.2,0.8,0.4c0.1,0.1,0.3,0.1,0.4,0.2l0.1,0l0,0l0,0c0.1,0,0.1,0.1,0.2,0.1c0.2,0.1,0.5,0.2,0.7,0.3
			c0.9,0.5,1.7,0.9,2.4,1.3c0.2,0.1,0.3,0.2,0.5,0.3c0.2,0.1,0.3,0.2,0.4,0.3c0.1,0.1,0.3,0.2,0.4,0.3c0.1,0,0.1,0.1,0.2,0.1
			c0.1,0,0.1,0.1,0.2,0.1c0.2,0.2,0.4,0.3,0.6,0.4c0.2,0.1,0.3,0.2,0.4,0.3c0.1,0,0.1,0.1,0.1,0.1c0.1,0.1,0.2,0.1,0.2,0.1l-0.1,0.2
			c0,0-0.1-0.1-0.3-0.2c0,0,0,0,0,0c-0.1-0.1-0.2-0.2-0.4-0.3C182.5,92.7,182.3,92.6,182,92.4z"/>
		<path d="M171.4,87.2c-0.3-0.1-0.7-0.2-1-0.4c-0.1,0-0.2-0.1-0.3-0.1c0.2,0,0.4,0,0.5,0c0.3,0.1,0.6,0.2,0.8,0.3
			c0.2,0.1,0.3,0.1,0.5,0.2c0,0,0.1,0,0.1,0l0,0.2c0,0-0.1,0-0.1,0C171.7,87.3,171.5,87.2,171.4,87.2z"/>
		<path d="M160.4,103.9l0.2-0.1l0.2-0.1c0.1-0.1,0.2-0.2,0.4-0.3c0,0.1,0,0.2,0,0.2c-0.1,0.1-0.2,0.1-0.2,0.2l-0.2,0.1l-0.2,0.1
			c-0.1,0-0.1,0.1-0.2,0.1c0,0,0,0-0.1,0c0-0.1,0-0.1,0-0.2c0,0,0,0,0,0C160.3,104,160.3,103.9,160.4,103.9z"/>
		<path d="M158.6,94.2C158.6,94.2,158.7,94.2,158.6,94.2c0.1-0.1,0.1-0.1,0.1-0.1c0.2,0.4,0.5,0.7,0.7,1.1c0,0-0.1,0.1-0.1,0.1
			c-0.1-0.1-0.2-0.3-0.3-0.4C158.9,94.6,158.8,94.4,158.6,94.2z"/>
		<path d="M157.2,87.2c0,0,0,0.1-0.1,0.1c-0.1,0.1-0.1,0.3-0.1,0.4c0,0-0.1,0-0.1,0c0,0-0.1,0-0.1,0c0-0.1,0.1-0.2,0.1-0.3
			C156.9,87.4,157,87.3,157.2,87.2z"/>
		<path d="M156.8,88.9c0,0-0.1,0-0.1,0.1c0,0,0,0,0,0c0-0.3,0-0.7,0.1-1c0.1,0,0.1-0.1,0.2-0.1c0,0,0,0,0,0
			C156.8,88.3,156.8,88.6,156.8,88.9z"/>
		<path d="M160.9,85.1c-0.1,0-0.2,0-0.2,0c0-0.1,0-0.1,0-0.2c0.1,0,0.2,0,0.3,0c0.3,0,0.6,0,0.9,0c0,0.1,0,0.1,0,0.2
			C161.5,85.1,161.2,85.1,160.9,85.1z"/>
		<path d="M161.3,103.1c0.4-0.4,0.6-0.9,0.7-1.4c0-0.1,0-0.2,0.1-0.3c0-0.1,0-0.1,0-0.2c0-0.1,0-0.2,0-0.2c0-0.3,0-0.5-0.1-0.8
			c0-0.1,0-0.2-0.1-0.3c0-0.1,0-0.1,0-0.2c-0.1-0.3-0.2-0.6-0.4-0.9c0.1,0,0.1,0,0.2,0c0.1,0.3,0.3,0.6,0.3,0.9c0,0.1,0,0.1,0,0.2
			c0,0.1,0,0.2,0.1,0.3c0.1,0.3,0.1,0.6,0.1,0.9c0,0.1,0,0.1,0,0.2c0,0.2,0,0.3-0.1,0.5c-0.1,0.5-0.4,1-0.8,1.4
			c-0.1,0.1-0.1,0.1-0.2,0.2C161.2,103.3,161.2,103.3,161.3,103.1C161.3,103.2,161.3,103.1,161.3,103.1z"/>
		<path d="M168.2,86.1c-0.4-0.1-0.7-0.2-1.1-0.3c-0.2,0-0.4-0.1-0.6-0.1c-0.2,0-0.4-0.1-0.6-0.1c-0.1,0-0.2,0-0.3-0.1
			c-0.1,0-0.2,0-0.3-0.1c-0.2,0-0.4-0.1-0.6-0.1c-0.2,0-0.4-0.1-0.6-0.1c-0.1,0-0.2,0-0.3,0c-0.1,0-0.2,0-0.3,0
			c-0.2,0-0.4,0-0.6-0.1c-0.2,0-0.4,0-0.6,0c-0.1,0-0.2,0-0.3,0c0-0.1,0-0.1,0-0.2c0.1,0,0.2,0,0.3,0c0.2,0,0.4,0,0.6,0
			c0.2,0,0.4,0,0.6,0.1c0.1,0,0.2,0,0.3,0c0.1,0,0.2,0,0.3,0c0.2,0,0.4,0.1,0.6,0.1c0.2,0,0.4,0.1,0.6,0.1c0.1,0,0.2,0,0.3,0.1
			c0.1,0,0.2,0,0.3,0.1c0.2,0,0.4,0.1,0.6,0.1c0.2,0,0.4,0.1,0.6,0.1c0.4,0.1,0.8,0.2,1.1,0.3c0.1,0,0.2,0.1,0.4,0.1
			c0.1,0.1,0.2,0.2,0.3,0.3c0.1,0,0.1,0.1,0.2,0.1c-0.1,0-0.2-0.1-0.4-0.1C168.6,86.2,168.4,86.1,168.2,86.1z"/>
		<path d="M156.8,104.7c-0.4,0-0.7-0.1-1.1-0.2v-0.2c0.4,0.1,0.7,0.2,1.1,0.2c0.5,0.1,1.1,0.1,1.6,0c0.5-0.1,1.1-0.2,1.5-0.4
			c0,0,0,0,0,0c0,0.1,0,0.1,0,0.2c-0.5,0.2-1,0.4-1.6,0.4C157.9,104.7,157.4,104.7,156.8,104.7z"/>
		<path d="M155.2,104.2c0.1,0,0.2,0.1,0.3,0.1v0.2c-0.1,0-0.2-0.1-0.3-0.1c-0.1,0-0.2-0.1-0.3-0.1c0,0,0-0.1,0-0.1
			C155,104.1,155.1,104.1,155.2,104.2z"/>
		<path d="M159.4,95.4c0,0,0.1-0.1,0.1-0.1c0.4,0.6,0.8,1.3,1.2,1.9c0,0.1-0.1,0.1-0.1,0.2c0,0,0,0,0,0
			C160.3,96.7,159.9,96.1,159.4,95.4z"/>
		<path d="M135.5,97.7c0.3,0.1,0.7,0.2,1,0.3c0,0,0,0.1-0.1,0.1c-0.3-0.1-0.6-0.2-0.9-0.3c-2.2-0.5-4.4-0.9-6.6-1l0,0v-0.1l0.1,0
			C131.1,96.8,133.3,97.1,135.5,97.7z"/>
		<path d="M159.5,106.5c-0.1,0-0.1,0.1-0.2,0.1c-0.1,0-0.1,0.1-0.2,0.1c-0.1,0.1-0.2,0.1-0.4,0.2l-0.2,0.1c-0.1,0-0.1,0.1-0.2,0.1
			l-0.2,0.1l-0.1,0l-0.1,0c-0.2,0.1-0.4,0.1-0.7,0.1c0-0.1,0-0.1,0-0.2c0.2,0,0.4-0.1,0.6-0.1l0.1,0l0.1,0l0.2-0.1
			c0.1,0,0.1,0,0.2-0.1l0.2-0.1c0.1-0.1,0.2-0.1,0.4-0.2l0.2-0.1c0.1,0,0.1-0.1,0.2-0.1c0.3-0.2,0.5-0.4,0.7-0.7c0,0.1,0,0.2,0,0.3
			C160,106.2,159.7,106.4,159.5,106.5z"/>
		<path d="M157.1,94.5c0.2,0.4,0.5,0.8,0.7,1.2c0.1,0.1,0.2,0.3,0.3,0.4c0,0-0.1,0.1-0.1,0.1c-0.1-0.1-0.2-0.3-0.3-0.4
			c-0.3-0.4-0.5-0.8-0.7-1.2c-0.2-0.4-0.4-0.8-0.6-1.3c-0.1-0.2-0.1-0.3-0.2-0.5c0,0,0,0,0.1,0c0,0,0.1-0.1,0.1-0.1
			c0.1,0.2,0.1,0.3,0.2,0.5C156.6,93.6,156.8,94.1,157.1,94.5z"/>
		<path d="M141.9,100l0,0.1c0,0,0,0,0,0c-1-0.5-2-0.9-3.1-1.3c-0.2-0.1-0.3-0.1-0.5-0.2c0,0,0-0.1,0-0.1c0.2,0.1,0.3,0.1,0.5,0.2
			C139.8,99.1,140.8,99.5,141.9,100z"/>
		<path d="M175.7,93c0.3,0.2,0.6,0.4,0.9,0.6c0.1,0.1,0.3,0.2,0.4,0.3c0.1,0.1,0.2,0.2,0.3,0.2c0.8,0.6,1.3,1,1.3,1l-0.1,0.2
			c0,0-0.5-0.3-1.3-1c-0.1-0.1-0.2-0.2-0.3-0.2c-0.1-0.1-0.2-0.2-0.4-0.3c-0.3-0.2-0.6-0.4-0.9-0.6c-0.3-0.2-0.7-0.4-1-0.7
			c0,0-0.1,0-0.1-0.1c0-0.1,0.1-0.1,0.1-0.2c0,0,0.1,0.1,0.1,0.1C175,92.6,175.4,92.8,175.7,93z"/>
		<path d="M160.5,105.3c0.3-0.4,0.4-0.9,0.5-1.4c0-0.1,0-0.2,0-0.2c0-0.1,0-0.2,0-0.2c0-0.3,0-0.7,0-1c0-0.1,0-0.3-0.1-0.4
			c0-0.1,0-0.1,0-0.2c-0.1-0.3-0.2-0.6-0.3-0.9c-0.1-0.3-0.3-0.7-0.4-1c0-0.1-0.1-0.1-0.1-0.2c-0.3-0.5-0.6-1-0.9-1.5
			c-0.1-0.2-0.3-0.5-0.4-0.7c0-0.1,0.1-0.1,0.1-0.2c0.2,0.3,0.4,0.5,0.5,0.8c0.3,0.5,0.6,1,0.9,1.6c0,0.1,0.1,0.1,0.1,0.2
			c0.1,0.3,0.3,0.6,0.4,0.9c0.1,0.3,0.2,0.6,0.3,0.9c0,0.1,0,0.1,0,0.2c0,0.1,0.1,0.3,0.1,0.4c0,0.3,0.1,0.6,0,0.9
			c0,0.1,0,0.2,0,0.3c0,0.2,0,0.3-0.1,0.5c-0.1,0.5-0.3,1-0.6,1.5c-0.1,0.1-0.2,0.3-0.3,0.4c0-0.1,0-0.2,0-0.3
			C160.4,105.4,160.4,105.3,160.5,105.3z"/>
		<path d="M171,90.4c-0.1-0.1-0.3-0.1-0.4-0.2c-1-0.6-2.2-1.1-3.4-1.7c-0.2-0.1-0.3-0.1-0.5-0.2c-0.2-0.1-0.3-0.1-0.5-0.2
			c-0.2-0.1-0.3-0.1-0.5-0.2c-0.2-0.1-0.3-0.1-0.5-0.2c-0.3-0.1-0.7-0.2-1-0.4c-0.3-0.1-0.5-0.2-0.8-0.2c0,0,0-0.1,0-0.1
			c0,0,0-0.1,0-0.1c0.3,0.1,0.6,0.2,0.9,0.3c0.4,0.1,0.7,0.2,1,0.4c0.2,0.1,0.3,0.1,0.5,0.2c0.2,0.1,0.3,0.1,0.5,0.2
			c0.2,0.1,0.3,0.1,0.5,0.2c0.2,0.1,0.3,0.1,0.5,0.2c1.3,0.5,2.4,1.1,3.5,1.7c0.1,0.1,0.3,0.1,0.4,0.2c0.1,0.1,0.3,0.1,0.4,0.2
			c0,0,0.1,0,0.1,0.1l0,0.2c-0.1,0-0.1-0.1-0.2-0.1C171.2,90.5,171.1,90.4,171,90.4z"/>
		<path d="M136.7,98c0.4,0.1,0.9,0.3,1.3,0.4c0,0,0,0.1,0,0.1c-0.4-0.2-0.9-0.3-1.3-0.4C136.7,98.1,136.7,98.1,136.7,98
			C136.7,98.1,136.7,98,136.7,98z"/>
		<path d="M155.8,89.3c-0.1,0.3-0.1,0.6-0.1,0.9c0,0,0,0,0,0.1c0,0,0,0,0,0c0,0,0,0,0,0c0,0,0,0,0,0c0,0.1,0,0.3,0,0.4
			c0,0.1,0,0.2,0,0.3c0,0.1,0,0.1,0,0.2c-0.1,0-0.1,0.1-0.2,0.2c0,0,0,0,0,0c0-0.1,0-0.2-0.1-0.3c0-0.1,0-0.2,0-0.3
			c0-0.5,0-0.9,0.1-1.4c0-0.2,0.1-0.4,0.2-0.7c0,0,0,0,0,0c0.1-0.1,0.2-0.2,0.3-0.2c-0.1,0.1-0.1,0.2-0.2,0.3
			C156,88.8,155.9,89,155.8,89.3z"/>
		<path d="M147.7,103.3c0.5,0.3,0.9,0.6,1.4,0.9c0.5,0.3,0.9,0.6,1.4,0.9c0.9,0.6,1.9,1.1,2.9,1.5c0.5,0.2,1,0.4,1.5,0.5l0.1,0
			l0.1,0l0.2,0c0.1,0,0.2,0,0.4,0.1c0,0.1,0.1,0.1,0.1,0.2l-0.1,0c-0.1,0-0.3,0-0.4-0.1l-0.2,0l-0.1,0l-0.1,0
			c-0.5-0.1-1.1-0.3-1.6-0.5c-1-0.4-2-0.9-2.9-1.5c-0.5-0.3-0.9-0.6-1.4-0.9c-0.5-0.3-0.9-0.6-1.4-0.9c-0.9-0.6-1.9-1.2-2.8-1.7
			c-0.9-0.5-1.7-1-2.6-1.4l0-0.1c0.9,0.4,1.8,0.9,2.7,1.4C145.8,102.1,146.7,102.7,147.7,103.3z"/>
		<path d="M157.4,86.8c0.1-0.1,0.2-0.1,0.3-0.2c0.1,0,0.1-0.1,0.2-0.1c0.1,0,0.3-0.1,0.4-0.1l0.2,0l0.1,0l0.1,0c0,0,0.1,0,0.1,0
			c0.1,0,0.1,0,0.2,0l0.1,0l0.1,0l0.2,0l0.2,0l0.2,0c0.1,0,0.2,0,0.3,0c0.1,0,0.2,0,0.3,0c0.2,0,0.4,0,0.6,0c0.2,0,0.4,0,0.6,0.1
			c0.1,0,0.3,0,0.4,0.1c0,0.1,0,0.1,0,0.2c-0.2,0-0.3-0.1-0.5-0.1c-0.2,0-0.4-0.1-0.6-0.1c-0.2,0-0.4,0-0.6,0c-0.1,0-0.2,0-0.3,0
			c-0.1,0-0.2,0-0.3,0l-0.2,0l-0.2,0l-0.2,0l-0.1,0l-0.1,0c-0.1,0-0.2,0-0.2,0c0,0,0,0-0.1,0l-0.1,0l0,0l-0.1,0
			c-0.2,0-0.3,0.1-0.5,0.2c-0.1,0-0.1,0.1-0.2,0.1c-0.1,0.1-0.3,0.2-0.4,0.2c0,0,0,0-0.1,0c-0.1,0.1-0.2,0.2-0.3,0.3
			c-0.2,0.1-0.3,0.3-0.4,0.5c-0.1,0.1-0.2,0.1-0.4,0.2c0-0.1,0.1-0.1,0.1-0.2c0.2-0.3,0.5-0.6,0.9-0.9c0,0,0.1,0,0.1-0.1
			C157.2,86.9,157.3,86.9,157.4,86.8z"/>
		<path d="M137.4,101.2c0,0,0,0.1,0,0.1c-1.8-0.9-3.7-1.6-5.6-2.3c-1-0.3-2-0.6-3-0.9v-0.1c1,0.3,2.1,0.6,3.1,0.9
			C133.8,99.6,135.6,100.3,137.4,101.2z"/>
		<path d="M140,102.5l0.2,0.1l0.2,0.1l0.4,0.2l0.8,0.5c0.1,0.1,0.3,0.2,0.4,0.2l0.4,0.2l0.7,0.5c0.5,0.3,1,0.6,1.5,1
			c0.5,0.3,1,0.6,1.5,1c0.2,0.2,0.5,0.3,0.7,0.5c0.2,0.2,0.5,0.3,0.7,0.5c1,0.6,2,1.1,3.1,1.6l0.4,0.2l0.2,0.1c0.1,0,0.1,0,0.2,0.1
			l0.4,0.1l0.2,0.1l0.2,0.1c0.6,0.2,1.1,0.3,1.7,0.4c0.1,0,0.3,0,0.4,0.1c0.1,0,0.3,0,0.4,0c0.1,0,0.3,0,0.4,0l0.1,0l0.1,0l0.2,0
			c0.6,0,1.1,0,1.7-0.2c0.1,0,0.3-0.1,0.4-0.1c0.1,0,0.1,0,0.2-0.1l0.2-0.1c0.2-0.1,0.5-0.3,0.7-0.4c0.2-0.2,0.4-0.4,0.6-0.6
			c0.2-0.2,0.3-0.5,0.4-0.7c0.1-0.2,0.2-0.5,0.3-0.8c0-0.1,0.1-0.3,0.1-0.4c0-0.1,0-0.3,0.1-0.4c0-0.1,0-0.1,0-0.2
			c0-0.1,0-0.2,0-0.3c0-0.4,0-0.8-0.1-1.2c0-0.1,0-0.2,0-0.3c0-0.1,0-0.1,0-0.2c-0.1-0.7-0.3-1.3-0.6-1.9c0-0.1,0-0.1-0.1-0.2
			c-0.1-0.2-0.2-0.4-0.3-0.6c-0.4-0.7-0.8-1.4-1.2-2.1c0-0.1-0.1-0.1-0.1-0.2c-0.1-0.2-0.2-0.3-0.3-0.5c-0.3-0.4-0.6-0.9-0.9-1.3
			c-0.3-0.4-0.5-0.9-0.8-1.4c-0.3-0.5-0.5-0.9-0.7-1.4c-0.2-0.5-0.4-1-0.5-1.5c-0.1-0.5-0.2-1-0.2-1.5c0-0.1,0-0.1,0-0.2l0-0.2
			c0-0.1,0-0.1,0-0.2l0-0.2c0-0.1,0-0.1,0-0.2l0-0.2c0-0.1,0-0.1,0-0.2l0-0.2l0-0.1l0,0c0,0,0,0,0,0l0.1-0.2l0-0.1c0,0,0-0.1,0-0.1
			l0.1-0.2c0.1-0.2,0.2-0.4,0.4-0.6c0.2-0.2,0.4-0.5,0.7-0.6c0.1-0.1,0.2-0.1,0.4-0.2c0,0,0.1,0,0.1-0.1c0.1,0,0.1,0,0.2-0.1
			c0,0,0,0,0.1,0c0,0,0.1,0,0.1,0c0,0,0.1,0,0.1,0c0.1,0,0.2-0.1,0.2-0.1l0.2,0l0.2,0c0,0,0,0,0.1,0c0.1,0,0.1,0,0.2,0
			c0,0,0.1,0,0.1,0c0.3,0,0.5,0,0.8,0c0.1,0,0.1,0,0.2,0c0.1,0,0.3,0,0.4,0c0.9,0.1,1.8,0.4,2.6,0.7c0.4,0.2,0.8,0.3,1.2,0.5
			c0.4,0.2,0.8,0.4,1.2,0.6c0.8,0.4,1.5,0.8,2.2,1.2c1.4,0.8,2.7,1.7,3.8,2.5c0.3,0.2,0.6,0.4,0.9,0.6c0.1,0.1,0.1,0.1,0.2,0.2
			c0.1,0.1,0.1,0.1,0.2,0.2c0.1,0.1,0.3,0.2,0.4,0.3c0.3,0.2,0.5,0.4,0.8,0.6c0.1,0.1,0.1,0.1,0.2,0.2c0.1,0.1,0.1,0.1,0.2,0.2
			c0.1,0.1,0.2,0.2,0.4,0.3c0.2,0.2,0.5,0.4,0.7,0.6c0.1,0.1,0.2,0.2,0.3,0.3c0.1,0.1,0.2,0.2,0.3,0.3c0.2,0.2,0.4,0.4,0.6,0.6
			c0.1,0,0.1,0.1,0.2,0.1l0,0l0,0l0.1,0.1c0.1,0.1,0.2,0.2,0.3,0.3c0.2,0.2,0.4,0.3,0.5,0.5c0.2,0.2,0.4,0.3,0.5,0.5
			c0.3,0.3,0.6,0.6,0.9,0.9c0,0,0.1,0.1,0.1,0.1c0.1,0.1,0.2,0.2,0.3,0.3c0.1,0.1,0.3,0.3,0.4,0.4c0.2,0.2,0.5,0.5,0.6,0.7
			c0.7,0.8,1.1,1.2,1.1,1.2l-0.2,0.2c0,0-0.1-0.1-0.3-0.3c-0.1-0.1-0.2-0.2-0.4-0.4c-0.1-0.2-0.3-0.3-0.5-0.6
			c-0.2-0.2-0.4-0.4-0.6-0.7c-0.1-0.1-0.1-0.1-0.2-0.2c-0.1-0.1-0.1-0.1-0.2-0.2c-0.1-0.1-0.3-0.3-0.4-0.4c-0.3-0.3-0.6-0.6-0.9-0.9
			c-0.2-0.2-0.3-0.3-0.5-0.5c-0.2-0.2-0.4-0.3-0.5-0.5c-1.5-1.4-3.4-3-5.7-4.7c-1.2-0.8-2.4-1.7-3.8-2.5c-0.7-0.4-1.4-0.8-2.2-1.2
			c-0.4-0.2-0.8-0.4-1.2-0.6c-0.4-0.2-0.8-0.4-1.2-0.5c-0.8-0.3-1.7-0.6-2.6-0.7c-0.1,0-0.2,0-0.4,0c-0.1,0-0.1,0-0.2,0
			c-0.3,0-0.5,0-0.8,0c0,0-0.1,0-0.1,0c-0.1,0-0.1,0-0.2,0c-0.2,0-0.5,0.1-0.7,0.2c-0.1,0-0.1,0.1-0.2,0.1c0,0-0.1,0-0.1,0
			c-0.1,0.1-0.3,0.1-0.4,0.2c-0.1,0.1-0.2,0.2-0.3,0.2c-0.1,0.1-0.3,0.2-0.4,0.4c-0.2,0.2-0.3,0.4-0.4,0.6l-0.1,0.2c0,0,0,0.1,0,0.1
			l0,0.1l-0.1,0.2c0,0,0,0,0,0l0,0l0,0.1l0,0.2c0,0.1,0,0.1,0,0.2l0,0.2c0,0.1,0,0.1,0,0.2l0,0.2c0,0.1,0,0.1,0,0.2l0,0.2
			c0,0.1,0,0.1,0,0.2c0,0.5,0.1,1,0.2,1.5c0.2,1,0.6,1.9,1.1,2.8c0.2,0.5,0.5,0.9,0.8,1.3c0.3,0.4,0.6,0.9,0.8,1.3
			c0.1,0.2,0.3,0.4,0.4,0.7c0,0.1,0.1,0.1,0.1,0.2c0.4,0.6,0.8,1.2,1.1,1.9c0.1,0.2,0.2,0.4,0.3,0.7c0,0.1,0,0.1,0.1,0.2
			c0.2,0.6,0.4,1.2,0.5,1.8c0,0.1,0,0.1,0,0.2c0,0.1,0,0.2,0.1,0.3c0,0.3,0.1,0.6,0.1,1c0,0.1,0,0.2,0,0.3c0,0.1,0,0.3,0,0.4
			c0,0.1,0,0.3-0.1,0.4c0,0.1-0.1,0.3-0.1,0.4c-0.1,0.3-0.2,0.5-0.3,0.8c-0.1,0.3-0.3,0.5-0.5,0.7c-0.2,0.2-0.4,0.4-0.6,0.6
			c-0.2,0.2-0.5,0.3-0.7,0.5l-0.2,0.1c-0.1,0-0.1,0.1-0.2,0.1c-0.1,0-0.3,0.1-0.4,0.1c-0.6,0.1-1.1,0.2-1.7,0.2l-0.2,0l-0.1,0
			l-0.1,0c-0.1,0-0.3,0-0.4,0c-0.1,0-0.3,0-0.4,0c-0.1,0-0.3,0-0.4-0.1c-0.6-0.1-1.1-0.2-1.7-0.4l-0.2-0.1l-0.2-0.1l-0.4-0.1
			c-0.1,0-0.1,0-0.2-0.1l-0.2-0.1l-0.4-0.2c-1.1-0.4-2.1-1-3.1-1.6c-0.3-0.1-0.5-0.3-0.7-0.5c-0.2-0.2-0.5-0.3-0.7-0.5
			c-0.5-0.3-1-0.6-1.5-1c-0.5-0.3-1-0.6-1.5-1l-0.7-0.5l-0.4-0.2c-0.1-0.1-0.2-0.2-0.4-0.2l-0.8-0.5l-0.4-0.2l-0.2-0.1l-0.2-0.1
			l-0.6-0.4c0,0,0-0.1,0-0.1L140,102.5z"/>
		<path d="M171.6,80.3l-0.1-0.2l-1.9-2.9l-0.3-0.5l-0.1,0.6l-0.2,1.3l-0.1,0.6l-0.1,0.9l0,0.2l-0.4,2.6l0,0.2l-0.2,1.4l0,0
			c0,0.4,0.2,0.9,0.6,1.3c0.1,0.1,0.2,0.2,0.3,0.3c0.1,0,0.1,0.1,0.2,0.1c0.3,0.2,0.7,0.3,1,0.3c0.2,0,0.4,0,0.5,0
			c0.2-0.1,0.3-0.2,0.4-0.3c0.4-0.5,0-1.3-0.8-1.9c-0.6-0.4-1.2-0.5-1.7-0.4l0.1-0.8l0-0.2l0.4-2.7l0-0.2l0.1-0.4l0.2,0.4l0.1,0.2
			l2.1,3.2l0.2,0.3l0.5,0.7l-0.4,2.6l0,0.2l-0.4,3l0,0.2l0,0.2l0,0c-0.1,0.5,0.3,1.1,0.9,1.5c0.8,0.5,1.7,0.6,2,0.1c0,0,0,0,0,0
			c0-0.1,0.1-0.1,0.1-0.2c0.1-0.5-0.2-1.2-0.9-1.7c-0.6-0.4-1.2-0.5-1.7-0.4l0.4-2.7l0-0.2l0.5-3.3l0-0.2l0.2-1.3l0,0l0,0
			L171.6,80.3z M171,80.1l0.1,0.2l1.5,2.3l-0.2,1.1l0,0.2l0,0l0,0l-0.2-0.3l-2.2-3.3l-0.1-0.2l-0.6-1l0.2-1.3L171,80.1z"/>
		<path d="M179.4,85.5l0,0.2l0,1.5c-0.1-0.1-0.3-0.2-0.4-0.3c-0.1-0.1-0.3-0.1-0.5-0.1c-0.2,0-0.4,0.1-0.6,0.2
			c-0.2,0.2-0.3,0.4-0.3,0.6c0,0.2,0.1,0.5,0.2,0.7c0.2,0.2,0.3,0.4,0.5,0.5c0.1,0,0.1,0.1,0.2,0.1c0,0,0.1,0.1,0.1,0.1
			c0.2,0.1,0.4,0.3,0.5,0.5c0.2,0.2,0.3,0.4,0.5,0.5l0.1-4.3l0-0.2l0-2.4l-0.3,0L179.4,85.5z M179.3,87.7l0,1.7
			c-0.1-0.1-0.1-0.2-0.2-0.2c-0.1-0.1-0.1-0.2-0.2-0.2c-0.1-0.1-0.2-0.3-0.3-0.4c-0.1-0.1-0.2-0.3-0.2-0.4c0-0.1,0-0.1,0-0.2
			c0-0.1,0-0.1,0-0.2c0-0.2,0-0.3,0.1-0.4c0.1-0.1,0.2-0.2,0.3-0.2c0,0,0,0,0.1,0c0,0,0.1,0,0.1,0c0.1,0,0.1,0.1,0.2,0.1
			c0.1,0,0.1,0.1,0.1,0.1C179.3,87.6,179.3,87.6,179.3,87.7C179.3,87.7,179.3,87.7,179.3,87.7z"/>
		<path d="M161.9,82.2c0,0,0-0.1,0.1-0.1c0,0,0,0,0,0c0,0.4,0,0.7,0,1.1c0,0.1,0,0.1,0,0.2c0,0.5,0,1,0,1.5c0,0.1,0,0.1,0,0.2
			c0,0.4,0,0.8,0,1.1c0,0,0,0,0,0c0.2-0.1,0.3-0.1,0.5,0c0.4,0.1,0.6,0.3,0.8,0.6c0,0,0,0.1,0,0.1c0,0,0,0.1,0,0.1c0,0,0,0.1,0,0.1
			c0,0,0,0,0,0.1c0,0,0,0.1-0.1,0.1c-0.1,0.1-0.2,0.1-0.3,0.1c0,0-0.1,0-0.1,0c-0.1,0-0.1,0-0.2,0c-0.1,0-0.1,0-0.2-0.1
			c-0.3-0.1-0.5-0.3-0.6-0.5c0-0.1,0-0.1-0.1-0.2c0-0.1,0-0.1,0-0.2c0,0,0-0.1,0-0.1c0-0.4,0-0.9,0-1.3c0-0.1,0-0.1,0-0.2
			c0-0.5,0-0.9,0-1.4c0,0,0,0,0,0c0,0,0,0,0,0c0,0,0,0,0,0c-0.1,0-0.1,0-0.2,0.1c0,0,0,0-0.1,0c-0.2,0.1-0.4,0.2-0.5,0.4
			c-0.2,0.2-0.3,0.3-0.3,0.5c0,0.2-0.1,0.3,0,0.5c0,0.1,0,0.1,0,0.2l0,0c0,0.3,0.1,0.5,0.3,0.8c0,0,0,0.1,0.1,0.1c0,0,0,0,0,0
			c0,0,0,0,0,0c-0.1-0.1-0.2-0.2-0.2-0.4c-0.1-0.2-0.2-0.4-0.2-0.6c0,0,0-0.1,0-0.1c0,0,0-0.1,0-0.1c0,0,0,0,0,0c0-0.1,0-0.2,0-0.3
			c0,0,0,0,0,0c0-0.1,0.1-0.3,0.1-0.4c0.1-0.2,0.2-0.4,0.3-0.5c0,0,0,0,0.1-0.1c0.1-0.1,0.2-0.2,0.2-0.3c0-0.1,0.1-0.1,0.1-0.2
			C161.6,82.9,161.7,82.5,161.9,82.2z"/>
		<path d="M158.2,89.7c-0.1,0-0.1,0.1-0.2,0.1c-0.3,0.2-0.7,0.5-1,0.7c-0.1,0-0.1,0.1-0.2,0.1c-0.2,0.2-0.5,0.3-0.7,0.5c0,0,0,0,0,0
			c0.1,0.1,0.3,0.2,0.3,0.4c0.1,0.3,0.1,0.7-0.1,1c0,0.1-0.1,0.1-0.1,0.2c0,0,0,0,0,0c0,0-0.1,0.1-0.1,0.1c0,0,0,0-0.1,0
			c0,0-0.1,0-0.1,0c-0.1,0-0.2-0.1-0.3-0.1c0,0-0.1-0.1-0.1-0.1c0-0.1-0.1-0.1-0.1-0.2c0-0.1-0.1-0.1-0.1-0.2
			c-0.1-0.3-0.1-0.5,0.1-0.8c0-0.1,0.1-0.1,0.1-0.1c0.1-0.1,0.1-0.1,0.2-0.2c0,0,0,0,0.1-0.1c0.3-0.2,0.6-0.4,0.9-0.6
			c0.1,0,0.1-0.1,0.2-0.1c0.3-0.2,0.7-0.5,1-0.7c0.1,0,0.1-0.1,0.2-0.1c0.1,0,0.1-0.1,0.2-0.1c0,0,0,0,0,0c0,0,0,0,0,0
			c-0.1,0-0.1-0.1-0.2-0.1c0,0-0.1,0-0.1-0.1c-0.1,0-0.1-0.1-0.2-0.1c-0.1,0-0.2-0.1-0.3-0.1c-0.2,0-0.4,0-0.6,0c0,0-0.1,0-0.1,0.1
			c-0.1,0-0.1,0.1-0.2,0.1c-0.1,0.1-0.2,0.1-0.3,0.2c-0.2,0.2-0.4,0.4-0.5,0.7c0,0,0,0.1-0.1,0.1c0,0,0,0,0,0c0,0,0,0,0,0
			c0,0,0,0,0,0c0,0,0,0,0-0.1c0-0.1,0.1-0.2,0.1-0.3c0.1-0.2,0.2-0.4,0.4-0.6c0,0,0.1-0.1,0.1-0.1c0.1,0,0.1-0.1,0.2-0.1l0,0
			c0,0,0,0,0,0c0,0,0.1,0,0.1-0.1c0.1,0,0.2-0.1,0.2-0.1c0.2,0,0.4,0,0.6,0c0,0,0.1,0,0.1,0c0.1,0,0.1,0,0.2,0c0.1,0,0.2,0,0.3,0
			c0.3,0,0.6,0,0.9-0.1c0.1,0,0.1,0,0.2,0c0,0,0,0,0,0c0,0,0.1,0,0.1,0c0,0,0,0,0,0c0,0-0.1,0.1-0.1,0.1c-0.1,0-0.1,0.1-0.2,0.1
			C158.9,89.2,158.6,89.5,158.2,89.7z"/>
		<path d="M158.6,97.9c0,0-0.1,0.1-0.1,0.1c-0.1,0-0.1,0-0.2,0c-0.1,0-0.2-0.1-0.3-0.2c0,0-0.1-0.1-0.1-0.1c0-0.1-0.1-0.1-0.1-0.2
			c0-0.1-0.1-0.2-0.1-0.2c-0.1-0.3-0.1-0.6,0.1-0.9c0-0.1,0.1-0.1,0.2-0.2c0,0,0.1-0.1,0.1-0.1c0,0,0.1-0.1,0.1-0.1
			c0.4-0.3,0.8-0.5,1.1-0.8c0,0,0.1-0.1,0.1-0.1c0.4-0.3,0.8-0.6,1.3-0.8c0,0,0.1-0.1,0.1-0.1c0,0,0,0,0,0c0,0,0,0,0.1,0
			c0,0,0,0,0,0c-0.1,0-0.1-0.1-0.2-0.1c0,0,0,0,0,0c-0.1-0.1-0.2-0.1-0.3-0.1c-0.1,0-0.2-0.1-0.3-0.1c-0.2,0-0.5,0-0.7,0
			c-0.2,0.1-0.4,0.2-0.6,0.3c0,0-0.1,0.1-0.1,0.1c0,0,0,0,0,0c-0.2,0.2-0.4,0.5-0.6,0.7c0,0-0.1,0.1-0.1,0.1c0,0,0,0,0,0
			c0,0,0,0,0,0c0.1-0.1,0.1-0.3,0.2-0.4c0.1-0.2,0.2-0.4,0.4-0.5c0,0,0.1-0.1,0.1-0.1c0,0,0,0,0.1-0.1c0,0,0,0,0,0
			c0.1-0.1,0.2-0.1,0.3-0.2c0,0,0,0,0.1,0c0.1-0.1,0.3-0.1,0.4-0.1c0.2,0,0.5,0,0.7,0c0,0,0,0,0.1,0c0.1,0,0.2,0,0.2,0
			c0.1,0,0.3,0,0.4,0c0.4,0,0.9,0,1.3-0.1c0,0,0,0,0.1,0c0,0,0,0,0.1,0c0,0,0,0,0,0c0,0,0,0,0,0c-0.4,0.3-0.8,0.6-1.3,0.9
			c0,0-0.1,0.1-0.1,0.1c-0.4,0.3-0.8,0.6-1.3,0.9c0,0-0.1,0.1-0.1,0.1c-0.3,0.2-0.7,0.4-1,0.7c0,0,0,0,0,0c0.2,0.1,0.3,0.3,0.4,0.5
			c0.1,0.3,0.1,0.5,0,0.8c0,0.1,0,0.1-0.1,0.2c0,0,0,0.1-0.1,0.1C158.7,97.8,158.6,97.8,158.6,97.9z"/>
		<path d="M130.5,91.8l0-0.1l1-3.4l-0.2-0.1l-1,3.6l0,0.1l-0.2,0.8l0,0c-0.1,0.2,0,0.5,0.2,0.8c0,0,0,0.1,0.1,0.1
			c0,0,0.1,0.1,0.1,0.1c0.2,0.2,0.4,0.3,0.6,0.3c0.3,0.1,0.5,0,0.7-0.1c0.2-0.2,0.2-0.4,0.1-0.7c0,0,0-0.1,0-0.1
			c-0.1-0.2-0.2-0.3-0.3-0.4c-0.2-0.2-0.4-0.3-0.6-0.3c-0.2-0.1-0.3,0-0.5,0L130.5,91.8z M130.3,92.6c0.1-0.1,0.3-0.1,0.5-0.1
			c0.2,0,0.3,0.1,0.5,0.3c0.1,0.1,0.2,0.2,0.3,0.3c0,0,0,0.1,0,0.1c0.1,0.2,0.1,0.4,0,0.5c-0.1,0.1-0.3,0.1-0.5,0.1
			c-0.2,0-0.3-0.1-0.5-0.3c0,0,0,0,0,0c0,0-0.1-0.1-0.1-0.1C130.2,93.1,130.1,92.8,130.3,92.6z"/>
		<path d="M155.5,106.8L155.5,106.8l0-2.4v-0.2v-1.1v0l-2.2-2.5v2.5c0.2-0.1,0.5-0.1,0.8,0c0.1,0,0.1,0,0.2,0.1
			c0.4,0.2,0.7,0.6,0.7,0.9c0,0.1,0,0.1,0,0.1c0,0,0,0,0,0c-0.2,0.3-0.7,0.4-1.2,0.1c-0.4-0.2-0.6-0.5-0.6-0.8h0v-0.1v-0.2v-0.2
			v-2.8v0v-0.2v-0.2v-0.8v-0.4l0.2,0.3l1.8,2.1l0.2,0.3l0.4,0.4l0,0h0v1.3v1.2v0.2v1.9c0.2-0.1,0.6-0.1,1,0.1
			c0.3,0.2,0.6,0.4,0.6,0.7c0,0.1,0,0.1,0,0.2c0,0.1,0,0.1,0,0.2c-0.2,0.3-0.7,0.4-1.2,0.1c-0.2-0.1-0.3-0.2-0.4-0.3
			c-0.1-0.1-0.1-0.1-0.1-0.2C155.6,107,155.5,106.9,155.5,106.8z"/>
		<path d="M148.3,94.3l0.1-0.1l1.4-2.9l-0.3-0.1l-1.3,2.9l-0.1,0.1l-1.1,2.4l-0.1,0.1l-0.3,0.6l0,0c-0.2,0.4-0.1,1,0.3,1.6
			c0.2,0.3,0.5,0.5,0.7,0.6c0.4,0.2,0.8,0.2,1,0c0.4-0.3,0.4-1.1,0-1.7c0-0.1-0.1-0.1-0.1-0.2c0-0.1-0.1-0.1-0.1-0.2
			c-0.2-0.2-0.4-0.3-0.6-0.4c-0.1-0.1-0.2-0.1-0.3-0.1c-0.1,0-0.2,0-0.3,0c0,0,0,0-0.1,0l0,0l0.1-0.1L148.3,94.3z M147,97.2
			c0.2-0.1,0.4-0.1,0.7,0c0.2,0.1,0.4,0.3,0.6,0.5c0.4,0.5,0.5,1.2,0.2,1.4c-0.2,0.1-0.4,0.1-0.7,0c-0.2-0.1-0.4-0.3-0.6-0.5
			C146.8,98.1,146.7,97.5,147,97.2z"/>
		<path d="M143.7,94.4l0.3,0.1l-0.2,0.5l0,0.1l-0.8,2.5l0,0.1l-0.8,2.5l0,0.1l-0.2,0.5c0.4-0.1,0.9,0.1,1.3,0.6
			c0.6,0.6,0.7,1.3,0.4,1.7c-0.4,0.4-1.1,0.2-1.7-0.4c-0.4-0.5-0.6-1-0.5-1.4l0,0l0.4-1.1l0-0.1l0.8-2.4l0-0.1l0.8-2.5l0-0.1
			L143.7,94.4z"/>
		<path d="M162.2,96.1l-0.1,0.1l-0.7,0.7c0.3,0.1,0.5,0.4,0.6,0.7c0.2,0.5,0,1-0.3,1.1l0,0c-0.1,0-0.1,0-0.2,0
			c-0.3,0-0.6-0.3-0.7-0.8c-0.1-0.2-0.1-0.5-0.1-0.7c0-0.1,0-0.1,0.1-0.2c0,0,0.1-0.1,0.1-0.1l0,0l1-1l0.1-0.1l1.1-1.1l0.1-0.1
			l1-1.1l0.2,0.2l-1.1,1.1l-0.1,0.1L162.2,96.1z"/>
		<path d="M164,81l0-0.2l0.8-4.3l-0.3-0.1l-0.8,4.4l0,0.2l-0.2,1.3l0,0c0,0.2,0,0.3,0.1,0.5c0,0.1,0.1,0.1,0.1,0.2
			c0.1,0.2,0.3,0.4,0.5,0.5c0.2,0.2,0.5,0.3,0.8,0.4c0.4,0.1,0.7,0,0.9-0.3c0.1-0.2,0.2-0.4,0.1-0.7c0-0.1,0-0.1-0.1-0.2
			c-0.1-0.2-0.3-0.5-0.5-0.7c-0.2-0.2-0.5-0.3-0.8-0.4c-0.2,0-0.5,0-0.6,0.1L164,81z M163.8,82.9c-0.1-0.2-0.1-0.5,0-0.6
			c0.1-0.1,0.3-0.2,0.6-0.1c0.2,0,0.4,0.1,0.7,0.3c0.2,0.1,0.3,0.3,0.4,0.4c0,0.1,0.1,0.1,0.1,0.2c0.1,0.2,0.1,0.4,0,0.5
			c-0.1,0.1-0.3,0.2-0.6,0.1c-0.2,0-0.4-0.1-0.7-0.3c-0.1-0.1-0.2-0.2-0.3-0.3C163.9,83.1,163.8,83,163.8,82.9z"/>
		<path d="M136.5,90.5l0-0.1l0.2-1.7l0,0l0,0l-2.3-3.4l-0.2-0.3l-0.1,0.4l-0.1,0.9l-0.1,0.4l-0.5,3.5l0,0c0,0.2,0,0.4,0.1,0.5
			c0,0,0,0.1,0.1,0.1c0.1,0.1,0.2,0.2,0.4,0.3c0.5,0.3,1.1,0.4,1.3,0c0.1-0.2,0.1-0.4,0-0.6c0,0,0-0.1-0.1-0.1
			c-0.1-0.2-0.3-0.4-0.5-0.5c-0.4-0.3-0.8-0.3-1.1-0.2l0.4-2.8l2.1,3l-0.1,0.4l0,0.1l-0.3,2.3l0,0.1l-0.1,1.1l0,0
			c0,0.3,0.2,0.7,0.6,1c0.5,0.3,1.1,0.4,1.3,0c0.2-0.3,0-0.9-0.5-1.2c-0.4-0.3-0.8-0.3-1.1-0.2l0.1-0.7l0-0.1L136.5,90.5z
			 M136.5,88.8l-0.1,0.9l-2.1-3l0.1-0.9L136.5,88.8z"/>
		<path d="M137.4,101.2c0-0.1,0-0.2,0-0.3c0.2-0.8,0.3-1.6,0.5-2.3c0,0,0-0.1,0-0.1c0.1-0.4,0.2-0.8,0.3-1.2c0,0,0,0,0-0.1
			c0,0,0,0-0.1,0c-0.1,0-0.2,0-0.3,0.1c-0.3,0.1-0.5,0.2-0.7,0.3c-0.2,0.1-0.4,0.3-0.5,0.5c0,0,0,0.1-0.1,0.1c0,0,0,0,0,0
			c-0.1,0.3-0.2,0.6-0.2,0.9c0,0.4,0,0.7,0.1,1.1c0,0.1,0,0.1,0,0.2c0,0,0,0,0,0c0,0,0,0,0,0c-0.1-0.2-0.1-0.3-0.2-0.5
			c-0.1-0.3-0.1-0.6-0.1-0.9c0,0,0-0.1,0-0.1c0-0.1,0-0.2,0.1-0.3c0,0,0,0,0-0.1c0-0.1,0.1-0.2,0.1-0.2c0,0,0-0.1,0.1-0.1
			c0,0,0-0.1,0.1-0.1c0.2-0.2,0.3-0.4,0.6-0.6c0.2-0.2,0.5-0.3,0.7-0.5c0.3-0.2,0.5-0.5,0.7-0.8c0,0,0.1-0.1,0.1-0.1
			c0.1-0.1,0.1-0.2,0.2-0.2c0,0,0.1-0.1,0.1-0.1c0,0,0,0,0,0c0,0.1-0.1,0.3-0.1,0.4c0,0,0,0.1,0,0.1c-0.2,0.8-0.4,1.6-0.5,2.4
			c0,0,0,0.1,0,0.1c-0.2,0.7-0.3,1.4-0.5,2.1c0,0,0,0,0,0c0.2,0,0.5,0,0.7,0.1c0.4,0.2,0.7,0.5,0.8,1c0,0.1,0,0.2,0,0.3c0,0,0,0,0,0
			c0,0,0,0.1,0,0.1c0,0,0,0,0,0c0,0.1-0.1,0.1-0.1,0.2c-0.1,0.1-0.2,0.1-0.4,0.1c0,0-0.1,0-0.1,0c-0.1,0-0.2,0-0.3-0.1
			c-0.1,0-0.2-0.1-0.3-0.1c-0.3-0.2-0.5-0.5-0.6-0.8c0-0.1,0-0.1,0-0.2C137.4,101.3,137.4,101.2,137.4,101.2z"/>
	</g>
</g>
<g id="Calque_12">
	<text transform="matrix(1 0 0 1 24.5913 157.2881)" class="st21 st22">Musique</text>
	<text transform="matrix(1 0 0 1 27.5542 160.25)"><tspan x="0" y="0" class="st10 st21 st22">Musique</tspan><tspan x="86.7" y="0" class="st23 st22"> action</tspan></text>
</g>
</svg>
